<svg xmlns="http://www.w3.org/2000/svg" xmlns:xlink="http://www.w3.org/1999/xlink" viewBox="0 0 1200 251.91"><defs><style>.cls-1,.cls-10,.cls-11,.cls-13,.cls-15,.cls-17,.cls-24,.cls-9{fill:none;}.cls-2{isolation:isolate;}.cls-3{clip-path:url(#clip-path);}.cls-4{fill:url(#Degradado_sin_nombre_59);}.cls-5{opacity:0.26;}.cls-6{fill:#111;mix-blend-mode:screen;}.cls-7{fill:url(#Nueva_muestra_de_degradado_1);}.cls-8{fill:url(#Nueva_muestra_de_degradado_1-2);}.cls-10,.cls-11,.cls-13,.cls-15,.cls-17,.cls-24,.cls-9{stroke-miterlimit:10;}.cls-9{stroke:url(#Nueva_muestra_de_degradado_1-3);}.cls-10{stroke:url(#Nueva_muestra_de_degradado_1-4);}.cls-11{stroke:url(#Nueva_muestra_de_degradado_1-5);}.cls-12{fill:url(#Nueva_muestra_de_degradado_1-6);}.cls-13{stroke:url(#Nueva_muestra_de_degradado_1-7);}.cls-14{opacity:0.74;}.cls-15{stroke:url(#Nueva_muestra_de_degradado_1-8);}.cls-16{opacity:0.46;}.cls-17{stroke:url(#Nueva_muestra_de_degradado_1-9);}.cls-18,.cls-19,.cls-20,.cls-21,.cls-22,.cls-24{mix-blend-mode:multiply;}.cls-18{opacity:0.24;fill:url(#Nueva_muestra_de_degradado_1-10);}.cls-19{fill:url(#Nueva_muestra_de_degradado_1-11);}.cls-20,.cls-21,.cls-22{opacity:0.47;}.cls-20{fill:url(#Nueva_muestra_de_degradado_1-12);}.cls-21{fill:url(#Nueva_muestra_de_degradado_1-13);}.cls-22{fill:url(#Nueva_muestra_de_degradado_1-14);}.cls-23{mix-blend-mode:overlay;opacity:0.2;fill:url(#Nueva_muestra_de_degradado_1-15);}.cls-24{stroke:#bf0029;stroke-width:4px;}</style><clipPath id="clip-path"><rect class="cls-1" y="-5.26" width="1200" height="800"/></clipPath><linearGradient id="Degradado_sin_nombre_59" x1="-116" y1="394.74" x2="1316" y2="394.74" gradientUnits="userSpaceOnUse"><stop offset="0" stop-color="#1e1e1e"/><stop offset="0.37" stop-color="#181818"/><stop offset="0.88" stop-color="#050505"/><stop offset="1"/></linearGradient><linearGradient id="Nueva_muestra_de_degradado_1" x1="-66.99" y1="66.39" x2="1400.18" y2="66.39" gradientUnits="userSpaceOnUse"><stop offset="0" stop-color="#e40210"/><stop offset="1" stop-color="#660027"/></linearGradient><linearGradient id="Nueva_muestra_de_degradado_1-2" x1="156.47" y1="79.62" x2="399.3" y2="79.62" xlink:href="#Nueva_muestra_de_degradado_1"/><linearGradient id="Nueva_muestra_de_degradado_1-3" x1="61.54" y1="41.79" x2="1529.71" y2="41.79" xlink:href="#Nueva_muestra_de_degradado_1"/><linearGradient id="Nueva_muestra_de_degradado_1-4" x1="285" y1="55.02" x2="528.82" y2="55.02" xlink:href="#Nueva_muestra_de_degradado_1"/><linearGradient id="Nueva_muestra_de_degradado_1-5" x1="-303.59" y1="-123.82" x2="1164.58" y2="-123.82" xlink:href="#Nueva_muestra_de_degradado_1"/><linearGradient id="Nueva_muestra_de_degradado_1-6" x1="981.84" y1="39.6" x2="1224.66" y2="39.6" xlink:href="#Nueva_muestra_de_degradado_1"/><linearGradient id="Nueva_muestra_de_degradado_1-7" x1="946.75" y1="66.2" x2="1190.58" y2="66.2" xlink:href="#Nueva_muestra_de_degradado_1"/><linearGradient id="Nueva_muestra_de_degradado_1-8" x1="381.5" y1="494.66" x2="1849.67" y2="494.66" xlink:href="#Nueva_muestra_de_degradado_1"/><linearGradient id="Nueva_muestra_de_degradado_1-9" x1="-58.78" y1="-30.76" x2="1409.39" y2="-30.76" xlink:href="#Nueva_muestra_de_degradado_1"/><linearGradient id="Nueva_muestra_de_degradado_1-10" x1="562.37" y1="57.06" x2="1136.6" y2="57.06" xlink:href="#Nueva_muestra_de_degradado_1"/><linearGradient id="Nueva_muestra_de_degradado_1-11" x1="275.06" y1="105.58" x2="849.29" y2="105.58" xlink:href="#Nueva_muestra_de_degradado_1"/><linearGradient id="Nueva_muestra_de_degradado_1-12" x1="217.09" y1="174.85" x2="791.32" y2="174.85" xlink:href="#Nueva_muestra_de_degradado_1"/><linearGradient id="Nueva_muestra_de_degradado_1-13" x1="77.14" y1="123.96" x2="953.9" y2="123.96" xlink:href="#Nueva_muestra_de_degradado_1"/><linearGradient id="Nueva_muestra_de_degradado_1-14" x1="-284.77" y1="217.26" x2="591.99" y2="217.26" xlink:href="#Nueva_muestra_de_degradado_1"/><linearGradient id="Nueva_muestra_de_degradado_1-15" x1="36.14" y1="142.33" x2="912.9" y2="142.33" xlink:href="#Nueva_muestra_de_degradado_1"/></defs><g class="cls-2"><g id="BACKGROUND"><g class="cls-3"><path class="cls-4" d="M-109.91-17-116,416.46l.45,390H1316V-17S-114.61-12.29-109.91-17Z"/><rect class="cls-1" y="-5.26" width="1200" height="800"/><g class="cls-5"><polygon class="cls-6" points="151.22 625.01 1618.39 108.91 1618.39 289.81 151.22 805.92 151.22 625.01"/><polygon class="cls-6" points="368.04 490.09 1178.11 205.14 1178.11 305.02 368.04 589.98 368.04 490.09"/><polygon class="cls-6" points="128.34 502.31 1682.9 -36.73 1682.9 3.16 128.34 542.2 128.34 502.31"/><polygon class="cls-6" points="-390.42 594.09 1164.14 55.06 1164.14 94.94 -390.42 633.98 -390.42 594.09"/><polygon class="cls-6" points="525.66 234.7 1335.73 -50.26 1335.73 49.63 525.66 334.58 525.66 234.7"/><polygon class="cls-6" points="128.61 430.24 938.68 145.28 938.68 245.16 128.61 530.12 128.61 430.24"/></g><g class="cls-5"><polygon class="cls-6" points="-42.32 245.92 1424.85 -270.19 1424.85 -89.28 -42.32 426.82 -42.32 245.92"/><polygon class="cls-6" points="174.5 111 984.57 -173.96 984.57 -74.08 174.5 210.88 174.5 111"/><polygon class="cls-6" points="-65.19 123.21 1489.37 -415.82 1489.37 -375.94 -65.19 163.1 -65.19 123.21"/><polygon class="cls-6" points="-583.96 214.99 970.6 -324.04 970.6 -284.15 -583.96 254.88 -583.96 214.99"/><polygon class="cls-6" points="-801.44 474.38 753.12 -64.66 753.12 -24.77 -801.44 514.26 -801.44 474.38"/><polygon class="cls-6" points="-64.93 51.14 745.14 -233.82 745.14 -133.94 -64.93 151.02 -64.93 51.14"/></g><polygon class="cls-7" points="-66.99 233.99 1400.18 -282.11 1400.18 -101.21 -66.99 414.89 -66.99 233.99"/><polygon class="cls-8" points="156.47 107.36 399.3 21.94 399.3 51.88 156.47 137.3 156.47 107.36"/><polygon class="cls-9" points="62.04 209.39 1529.21 -306.72 1529.21 -125.81 62.04 390.29 62.04 209.39"/><polygon class="cls-10" points="285.5 82.75 528.32 -2.66 528.32 27.28 285.5 112.69 285.5 82.75"/><polygon class="cls-11" points="-303.09 43.78 1164.08 -472.32 1164.08 -291.42 -303.09 224.69 -303.09 43.78"/><polygon class="cls-12" points="981.84 67.34 1224.66 -18.08 1224.66 11.86 981.84 97.28 981.84 67.34"/><polygon class="cls-13" points="947.25 93.94 1190.08 8.52 1190.08 38.46 947.25 123.88 947.25 93.94"/><g class="cls-14"><polygon class="cls-15" points="382 662.26 1849.17 146.16 1849.17 327.06 382 843.16 382 662.26"/></g><g class="cls-16"><polygon class="cls-17" points="-58.28 136.84 1408.89 -379.26 1408.89 -198.36 -58.28 317.75 -58.28 136.84"/><polygon class="cls-18" points="562.37 122.65 1136.6 -79.34 1136.6 -8.54 562.37 193.46 562.37 122.65"/><polygon class="cls-19" points="275.06 171.17 849.28 -30.82 849.28 39.98 275.06 241.98 275.06 171.17"/><polygon class="cls-20" points="217.09 240.45 791.32 38.45 791.32 109.25 217.09 311.25 217.09 240.45"/><polygon class="cls-21" points="77.14 224.11 953.9 -84.31 953.9 23.8 77.14 332.22 77.14 224.11"/><polygon class="cls-22" points="-284.77 317.42 591.99 9 591.99 117.11 -284.77 425.52 -284.77 317.42"/><polygon class="cls-23" points="36.14 242.49 912.9 -65.93 912.9 42.18 36.14 350.6 36.14 242.49"/><line class="cls-24" x1="178.92" y1="290.85" x2="918.3" y2="25.07"/><line class="cls-24" x1="-62.82" y1="294.59" x2="854.68" y2="-35.22"/><line class="cls-24" x1="357.05" y1="179.17" x2="1274.55" y2="-150.64"/></g></g></g></g></svg>