<svg xmlns="http://www.w3.org/2000/svg" xmlns:xlink="http://www.w3.org/1999/xlink" viewBox="0 0 1200 204.68"><defs><style>.cls-1,.cls-10,.cls-17,.cls-8{fill:none;}.cls-2{isolation:isolate;}.cls-3{clip-path:url(#clip-path);}.cls-4{fill:url(#Degradado_sin_nombre_59);}.cls-5{opacity:0.26;}.cls-6{fill:#111;mix-blend-mode:screen;}.cls-7{fill:url(#Nueva_muestra_de_degradado_1);}.cls-10,.cls-17,.cls-8{stroke-miterlimit:10;}.cls-8{stroke:url(#Nueva_muestra_de_degradado_1-2);}.cls-9{opacity:0.74;}.cls-10{stroke:url(#Nueva_muestra_de_degradado_1-3);}.cls-11,.cls-12,.cls-13,.cls-14,.cls-15,.cls-17{mix-blend-mode:multiply;}.cls-11{fill:url(#Nueva_muestra_de_degradado_1-4);}.cls-12{fill:url(#Nueva_muestra_de_degradado_1-5);}.cls-13,.cls-14,.cls-15,.cls-16{opacity:0.47;}.cls-13{fill:url(#Nueva_muestra_de_degradado_1-6);}.cls-14{fill:url(#Nueva_muestra_de_degradado_1-7);}.cls-15{fill:url(#Nueva_muestra_de_degradado_1-8);}.cls-16{mix-blend-mode:overlay;fill:url(#Nueva_muestra_de_degradado_1-9);}.cls-17{stroke:#bf0029;stroke-width:4px;}</style><clipPath id="clip-path"><rect class="cls-1" y="-595.32" width="1200" height="800"/></clipPath><linearGradient id="Degradado_sin_nombre_59" x1="-116" y1="-195.32" x2="1316" y2="-195.32" gradientUnits="userSpaceOnUse"><stop offset="0" stop-color="#1e1e1e"/><stop offset="0.37" stop-color="#181818"/><stop offset="0.88" stop-color="#050505"/><stop offset="1"/></linearGradient><linearGradient id="Nueva_muestra_de_degradado_1" x1="225.04" y1="58.9" x2="1692.22" y2="58.9" gradientUnits="userSpaceOnUse"><stop offset="0" stop-color="#e40210"/><stop offset="1" stop-color="#660027"/></linearGradient><linearGradient id="Nueva_muestra_de_degradado_1-2" x1="595" y1="136.05" x2="2063.17" y2="136.05" xlink:href="#Nueva_muestra_de_degradado_1"/><linearGradient id="Nueva_muestra_de_degradado_1-3" x1="381.5" y1="-95.4" x2="1849.67" y2="-95.4" xlink:href="#Nueva_muestra_de_degradado_1"/><linearGradient id="Nueva_muestra_de_degradado_1-4" x1="715.34" y1="142.72" x2="1289.57" y2="142.72" xlink:href="#Nueva_muestra_de_degradado_1"/><linearGradient id="Nueva_muestra_de_degradado_1-5" x1="715.34" y1="40.93" x2="1289.57" y2="40.93" xlink:href="#Nueva_muestra_de_degradado_1"/><linearGradient id="Nueva_muestra_de_degradado_1-6" x1="657.38" y1="110.2" x2="1231.61" y2="110.2" xlink:href="#Nueva_muestra_de_degradado_1"/><linearGradient id="Nueva_muestra_de_degradado_1-7" x1="517.42" y1="59.31" x2="1394.18" y2="59.31" xlink:href="#Nueva_muestra_de_degradado_1"/><linearGradient id="Nueva_muestra_de_degradado_1-8" x1="155.51" y1="152.61" x2="1032.27" y2="152.61" xlink:href="#Nueva_muestra_de_degradado_1"/><linearGradient id="Nueva_muestra_de_degradado_1-9" x1="476.42" y1="77.69" x2="1353.19" y2="77.69" xlink:href="#Nueva_muestra_de_degradado_1"/></defs><g class="cls-2"><g id="BACKGROUND"><g class="cls-3"><path class="cls-4" d="M-109.91-607-116-173.6l.45,390H1316V-607S-114.61-602.35-109.91-607Z"/><rect class="cls-1" y="-595.32" width="1200" height="800"/><g class="cls-5"><polygon class="cls-6" points="151.22 34.95 1618.39 -481.15 1618.39 -300.25 151.22 215.85 151.22 34.95"/><polygon class="cls-6" points="-390.42 4.03 1164.14 -535 1164.14 -495.12 -390.42 43.92 -390.42 4.03"/><polygon class="cls-6" points="-607.9 263.41 946.66 -275.62 946.66 -235.74 -607.9 303.3 -607.9 263.41"/></g><g class="cls-5"><polygon class="cls-6" points="486.42 396.09 1953.59 -120.01 1953.59 60.89 486.42 577 486.42 396.09"/><polygon class="cls-6" points="703.24 261.17 1513.31 -23.79 1513.31 76.1 703.24 361.05 703.24 261.17"/><polygon class="cls-6" points="463.55 273.39 2018.11 -265.65 2018.11 -225.76 463.55 313.27 463.55 273.39"/><polygon class="cls-6" points="-55.22 365.17 1499.34 -173.86 1499.34 -133.98 -55.22 405.06 -55.22 365.17"/><polygon class="cls-6" points="-272.7 624.55 1281.86 85.52 1281.86 125.4 -272.7 664.44 -272.7 624.55"/><polygon class="cls-6" points="860.86 5.78 1670.93 -279.18 1670.93 -179.29 860.86 105.66 860.86 5.78"/><polygon class="cls-6" points="463.81 201.31 1273.88 -83.64 1273.88 16.24 463.81 301.2 463.81 201.31"/></g><polygon class="cls-7" points="225.04 226.5 1692.22 -289.61 1692.22 -108.7 225.04 407.4 225.04 226.5"/><polygon class="cls-8" points="595.5 303.65 2062.67 -212.46 2062.67 -31.55 595.5 484.55 595.5 303.65"/><g class="cls-9"><polygon class="cls-10" points="382 72.2 1849.17 -443.91 1849.17 -263 382 253.1 382 72.2"/><polygon class="cls-11" points="715.34 208.31 1289.57 6.32 1289.57 77.12 715.34 279.12 715.34 208.31"/><polygon class="cls-12" points="715.34 106.53 1289.57 -95.47 1289.57 -24.66 715.34 177.33 715.34 106.53"/><polygon class="cls-13" points="657.38 175.8 1231.61 -26.2 1231.61 44.61 657.38 246.6 657.38 175.8"/><polygon class="cls-14" points="517.42 159.47 1394.18 -148.95 1394.18 -40.85 517.42 267.57 517.42 159.47"/><polygon class="cls-15" points="155.51 252.77 1032.27 -55.65 1032.27 52.46 155.51 360.88 155.51 252.77"/><polygon class="cls-16" points="476.42 177.84 1353.19 -130.57 1353.19 -22.47 476.42 285.95 476.42 177.84"/><line class="cls-17" x1="619.21" y1="226.21" x2="1358.58" y2="-39.57"/><line class="cls-17" x1="377.46" y1="229.95" x2="1294.96" y2="-99.86"/><line class="cls-17" x1="797.34" y1="114.52" x2="1714.84" y2="-215.29"/></g></g></g></g></svg>