<svg xmlns="http://www.w3.org/2000/svg" xmlns:xlink="http://www.w3.org/1999/xlink" viewBox="0 0 1200 166.67"><defs><style>.cls-1,.cls-10,.cls-13,.cls-17,.cls-20,.cls-8{fill:none;}.cls-2{isolation:isolate;}.cls-3{clip-path:url(#clip-path);}.cls-4{fill:url(#Degradado_sin_nombre_59);}.cls-5{opacity:0.26;}.cls-6{fill:#111;mix-blend-mode:screen;}.cls-7{fill:url(#Nueva_muestra_de_degradado_1);}.cls-10,.cls-13,.cls-17,.cls-20,.cls-8{stroke-miterlimit:10;}.cls-8{stroke:url(#Nueva_muestra_de_degradado_1-2);}.cls-9{fill:url(#Nueva_muestra_de_degradado_1-3);}.cls-10{stroke:url(#Nueva_muestra_de_degradado_1-4);}.cls-11{fill:url(#Nueva_muestra_de_degradado_1-5);}.cls-12{opacity:0.74;}.cls-13{stroke:url(#Nueva_muestra_de_degradado_1-6);}.cls-14,.cls-15,.cls-17,.cls-19{mix-blend-mode:multiply;}.cls-14{fill:url(#Nueva_muestra_de_degradado_1-7);}.cls-15,.cls-16,.cls-19{opacity:0.47;}.cls-15{fill:url(#Nueva_muestra_de_degradado_1-8);}.cls-16{mix-blend-mode:overlay;fill:url(#Nueva_muestra_de_degradado_1-9);}.cls-17{stroke:#bf0029;stroke-width:4px;}.cls-18{opacity:0.46;}.cls-19{fill:url(#Nueva_muestra_de_degradado_1-10);}.cls-20{stroke:url(#Nueva_muestra_de_degradado_1-11);}.cls-21{fill:url(#Nueva_muestra_de_degradado_1-12);}</style><clipPath id="clip-path"><rect class="cls-1" y="-362.33" width="1200" height="800"/></clipPath><linearGradient id="Degradado_sin_nombre_59" x1="-116" y1="37.67" x2="1316" y2="37.67" gradientUnits="userSpaceOnUse"><stop offset="0" stop-color="#1e1e1e"/><stop offset="0.37" stop-color="#181818"/><stop offset="0.88" stop-color="#050505"/><stop offset="1"/></linearGradient><linearGradient id="Nueva_muestra_de_degradado_1" x1="225.04" y1="291.88" x2="1692.22" y2="291.88" gradientUnits="userSpaceOnUse"><stop offset="0" stop-color="#e40210"/><stop offset="1" stop-color="#660027"/></linearGradient><linearGradient id="Nueva_muestra_de_degradado_1-2" x1="595" y1="369.03" x2="2063.17" y2="369.03" xlink:href="#Nueva_muestra_de_degradado_1"/><linearGradient id="Nueva_muestra_de_degradado_1-3" x1="-66.99" y1="-290.69" x2="1400.18" y2="-290.69" xlink:href="#Nueva_muestra_de_degradado_1"/><linearGradient id="Nueva_muestra_de_degradado_1-4" x1="61.54" y1="-315.29" x2="1529.71" y2="-315.29" xlink:href="#Nueva_muestra_de_degradado_1"/><linearGradient id="Nueva_muestra_de_degradado_1-5" x1="869.04" y1="149.79" x2="1111.87" y2="149.79" xlink:href="#Nueva_muestra_de_degradado_1"/><linearGradient id="Nueva_muestra_de_degradado_1-6" x1="381.5" y1="137.58" x2="1849.67" y2="137.58" xlink:href="#Nueva_muestra_de_degradado_1"/><linearGradient id="Nueva_muestra_de_degradado_1-7" x1="715.34" y1="273.91" x2="1289.57" y2="273.91" xlink:href="#Nueva_muestra_de_degradado_1"/><linearGradient id="Nueva_muestra_de_degradado_1-8" x1="517.42" y1="292.29" x2="1394.18" y2="292.29" xlink:href="#Nueva_muestra_de_degradado_1"/><linearGradient id="Nueva_muestra_de_degradado_1-9" x1="476.42" y1="310.67" x2="1353.19" y2="310.67" xlink:href="#Nueva_muestra_de_degradado_1"/><linearGradient id="Nueva_muestra_de_degradado_1-10" x1="-284.77" y1="-139.82" x2="591.99" y2="-139.82" xlink:href="#Nueva_muestra_de_degradado_1"/><linearGradient id="Nueva_muestra_de_degradado_1-11" x1="833.96" y1="151.12" x2="1077.78" y2="151.12" xlink:href="#Nueva_muestra_de_degradado_1"/><linearGradient id="Nueva_muestra_de_degradado_1-12" x1="320.45" y1="93.17" x2="438.13" y2="93.17" gradientTransform="matrix(7.08, -1.83, -0.38, 0.95, -2020.72, 686.92)" xlink:href="#Nueva_muestra_de_degradado_1"/></defs><g class="cls-2"><g id="BACKGROUND"><g class="cls-3"><path class="cls-4" d="M-109.91-374.07-116,59.38l.45,390H1316V-374.07S-114.61-369.37-109.91-374.07Z"/><rect class="cls-1" y="-362.33" width="1200" height="800"/><g class="cls-5"><polygon class="cls-6" points="151.22 267.94 1618.39 -248.17 1618.39 -67.27 151.22 448.84 151.22 267.94"/><polygon class="cls-6" points="368.04 133.01 1178.11 -151.94 1178.11 -52.06 368.04 232.9 368.04 133.01"/><polygon class="cls-6" points="128.34 145.23 1682.9 -393.8 1682.9 -353.92 128.34 185.12 128.34 145.23"/><polygon class="cls-6" points="-390.42 237.01 1164.14 -302.02 1164.14 -262.13 -390.42 276.9 -390.42 237.01"/><polygon class="cls-6" points="-607.9 496.39 946.66 -42.64 946.66 -2.75 -607.9 536.28 -607.9 496.39"/><polygon class="cls-6" points="128.61 73.16 938.68 -211.8 938.68 -111.92 128.61 173.04 128.61 73.16"/></g><g class="cls-5"><polygon class="cls-6" points="-42.32 -111.16 1424.85 -627.26 1424.85 -446.36 -42.32 69.74 -42.32 -111.16"/><polygon class="cls-6" points="-801.44 117.3 753.12 -421.74 753.12 -381.85 -801.44 157.18 -801.44 117.3"/></g><g class="cls-5"><polygon class="cls-6" points="486.42 629.08 1953.59 112.97 1953.59 293.87 486.42 809.98 486.42 629.08"/><polygon class="cls-6" points="463.55 506.37 2018.11 -32.66 2018.11 7.22 463.55 546.26 463.55 506.37"/><polygon class="cls-6" points="-55.22 598.15 1499.34 59.12 1499.34 99 -55.22 638.04 -55.22 598.15"/><polygon class="cls-6" points="860.86 238.76 1670.93 -46.19 1670.93 53.69 860.86 338.64 860.86 238.76"/><polygon class="cls-6" points="463.81 434.3 1273.88 149.34 1273.88 249.22 463.81 534.18 463.81 434.3"/></g><polygon class="cls-7" points="225.04 459.48 1692.22 -56.62 1692.22 124.28 225.04 640.38 225.04 459.48"/><polygon class="cls-8" points="595.5 536.63 2062.67 20.52 2062.67 201.43 595.5 717.53 595.5 536.63"/><polygon class="cls-9" points="-66.99 -123.09 1400.18 -639.19 1400.18 -458.29 -66.99 57.81 -66.99 -123.09"/><polygon class="cls-10" points="62.04 -147.69 1529.21 -663.79 1529.21 -482.89 62.04 33.21 62.04 -147.69"/><polygon class="cls-11" points="869.04 177.53 1111.87 92.11 1111.87 122.05 869.04 207.47 869.04 177.53"/><g class="cls-12"><polygon class="cls-13" points="382 305.18 1849.17 -210.92 1849.17 -30.02 382 486.08 382 305.18"/><polygon class="cls-14" points="715.34 339.51 1289.57 137.51 1289.57 208.32 715.34 410.31 715.34 339.51"/><polygon class="cls-15" points="517.42 392.45 1394.18 84.03 1394.18 192.14 517.42 500.55 517.42 392.45"/><polygon class="cls-16" points="476.42 410.83 1353.19 102.41 1353.19 210.51 476.42 518.93 476.42 410.83"/><line class="cls-17" x1="377.46" y1="462.93" x2="1294.96" y2="133.12"/><line class="cls-17" x1="797.34" y1="347.5" x2="1714.84" y2="17.7"/></g><g class="cls-18"><polygon class="cls-19" points="-284.77 -39.66 591.99 -348.08 591.99 -239.97 -284.77 68.44 -284.77 -39.66"/></g><polygon class="cls-20" points="834.46 178.86 1077.28 93.44 1077.28 123.38 834.46 208.8 834.46 178.86"/></g></g><g id="OBJECTS"><polygon class="cls-21" points="220.61 167.55 997.25 -68.45 1035.34 -2.4 257.21 232.98 220.61 167.55"/></g></g></svg>