<svg xmlns="http://www.w3.org/2000/svg" xmlns:xlink="http://www.w3.org/1999/xlink" viewBox="0 0 1200 217.44"><defs><style>.cls-1,.cls-13,.cls-20,.cls-21,.cls-22,.cls-23,.cls-8{fill:none;}.cls-2{isolation:isolate;}.cls-3{clip-path:url(#clip-path);}.cls-4{fill:url(#Degradado_sin_nombre_59);}.cls-5{opacity:0.26;}.cls-6{fill:#111;mix-blend-mode:screen;}.cls-7{fill:url(#Nueva_muestra_de_degradado_1);}.cls-13,.cls-20,.cls-21,.cls-22,.cls-23,.cls-8{stroke-miterlimit:10;}.cls-8{stroke:url(#Nueva_muestra_de_degradado_1-2);}.cls-9{fill:url(#Nueva_muestra_de_degradado_1-3);}.cls-10{fill:url(#Nueva_muestra_de_degradado_1-4);}.cls-11{fill:url(#Nueva_muestra_de_degradado_1-5);}.cls-12{opacity:0.74;}.cls-13{stroke:url(#Nueva_muestra_de_degradado_1-6);}.cls-14,.cls-15,.cls-16,.cls-17,.cls-18,.cls-20{mix-blend-mode:multiply;}.cls-14{fill:url(#Nueva_muestra_de_degradado_1-7);}.cls-15{fill:url(#Nueva_muestra_de_degradado_1-8);}.cls-16,.cls-17,.cls-18,.cls-19{opacity:0.47;}.cls-16{fill:url(#Nueva_muestra_de_degradado_1-9);}.cls-17{fill:url(#Nueva_muestra_de_degradado_1-10);}.cls-18{fill:url(#Nueva_muestra_de_degradado_1-11);}.cls-19{mix-blend-mode:overlay;fill:url(#Nueva_muestra_de_degradado_1-12);}.cls-20{stroke:#bf0029;stroke-width:4px;}.cls-21{stroke:url(#Nueva_muestra_de_degradado_1-13);}.cls-22{stroke:url(#Nueva_muestra_de_degradado_1-14);}.cls-23{stroke:url(#Nueva_muestra_de_degradado_1-15);}.cls-24{fill:url(#Nueva_muestra_de_degradado_1-16);}</style><clipPath id="clip-path"><rect class="cls-1" y="-474.23" width="1200" height="800"/></clipPath><linearGradient id="Degradado_sin_nombre_59" x1="-116" y1="-74.23" x2="1316" y2="-74.23" gradientUnits="userSpaceOnUse"><stop offset="0" stop-color="#1e1e1e"/><stop offset="0.37" stop-color="#181818"/><stop offset="0.88" stop-color="#050505"/><stop offset="1"/></linearGradient><linearGradient id="Nueva_muestra_de_degradado_1" x1="225.04" y1="179.98" x2="1692.22" y2="179.98" gradientUnits="userSpaceOnUse"><stop offset="0" stop-color="#e40210"/><stop offset="1" stop-color="#660027"/></linearGradient><linearGradient id="Nueva_muestra_de_degradado_1-2" x1="595" y1="257.13" x2="2063.17" y2="257.13" xlink:href="#Nueva_muestra_de_degradado_1"/><linearGradient id="Nueva_muestra_de_degradado_1-3" x1="869.04" y1="37.9" x2="1111.87" y2="37.9" xlink:href="#Nueva_muestra_de_degradado_1"/><linearGradient id="Nueva_muestra_de_degradado_1-4" x1="821.89" y1="89.41" x2="864.16" y2="89.41" xlink:href="#Nueva_muestra_de_degradado_1"/><linearGradient id="Nueva_muestra_de_degradado_1-5" x1="801.11" y1="100.74" x2="817.66" y2="100.74" xlink:href="#Nueva_muestra_de_degradado_1"/><linearGradient id="Nueva_muestra_de_degradado_1-6" x1="381.5" y1="25.68" x2="1849.67" y2="25.68" xlink:href="#Nueva_muestra_de_degradado_1"/><linearGradient id="Nueva_muestra_de_degradado_1-7" x1="715.34" y1="263.8" x2="1289.57" y2="263.8" xlink:href="#Nueva_muestra_de_degradado_1"/><linearGradient id="Nueva_muestra_de_degradado_1-8" x1="715.34" y1="162.02" x2="1289.57" y2="162.02" xlink:href="#Nueva_muestra_de_degradado_1"/><linearGradient id="Nueva_muestra_de_degradado_1-9" x1="657.38" y1="231.29" x2="1231.61" y2="231.29" xlink:href="#Nueva_muestra_de_degradado_1"/><linearGradient id="Nueva_muestra_de_degradado_1-10" x1="517.42" y1="180.4" x2="1394.18" y2="180.4" xlink:href="#Nueva_muestra_de_degradado_1"/><linearGradient id="Nueva_muestra_de_degradado_1-11" x1="155.51" y1="273.7" x2="1032.27" y2="273.7" xlink:href="#Nueva_muestra_de_degradado_1"/><linearGradient id="Nueva_muestra_de_degradado_1-12" x1="476.42" y1="198.77" x2="1353.19" y2="198.77" xlink:href="#Nueva_muestra_de_degradado_1"/><linearGradient id="Nueva_muestra_de_degradado_1-13" x1="833.96" y1="39.23" x2="1077.78" y2="39.23" xlink:href="#Nueva_muestra_de_degradado_1"/><linearGradient id="Nueva_muestra_de_degradado_1-14" x1="786.8" y1="90.74" x2="830.07" y2="90.74" xlink:href="#Nueva_muestra_de_degradado_1"/><linearGradient id="Nueva_muestra_de_degradado_1-15" x1="766.03" y1="102.07" x2="783.58" y2="102.07" xlink:href="#Nueva_muestra_de_degradado_1"/><linearGradient id="Nueva_muestra_de_degradado_1-16" x1="320.45" y1="-18.73" x2="438.13" y2="-18.73" gradientTransform="matrix(7.08, -1.83, -0.38, 0.95, -2063.63, 681.49)" xlink:href="#Nueva_muestra_de_degradado_1"/></defs><g class="cls-2"><g id="BACKGROUND"><g class="cls-3"><path class="cls-4" d="M-109.91-486-116-52.51l.45,390H1316V-486S-114.61-481.27-109.91-486Z"/><rect class="cls-1" y="-474.23" width="1200" height="800"/><g class="cls-5"><polygon class="cls-6" points="151.22 156.04 1618.39 -360.06 1618.39 -179.16 151.22 336.94 151.22 156.04"/><polygon class="cls-6" points="368.04 21.12 1178.11 -263.84 1178.11 -163.96 368.04 121 368.04 21.12"/><polygon class="cls-6" points="128.34 33.33 1682.9 -505.7 1682.9 -465.81 128.34 73.22 128.34 33.33"/><polygon class="cls-6" points="-390.42 125.12 1164.14 -413.92 1164.14 -374.03 -390.42 165 -390.42 125.12"/><polygon class="cls-6" points="-607.9 384.5 946.66 -154.54 946.66 -114.65 -607.9 424.38 -607.9 384.5"/><polygon class="cls-6" points="128.61 -38.74 938.68 -323.7 938.68 -223.81 128.61 61.14 128.61 -38.74"/></g><g class="cls-5"><polygon class="cls-6" points="-801.44 5.4 753.12 -533.63 753.12 -493.75 -801.44 45.29 -801.44 5.4"/></g><g class="cls-5"><polygon class="cls-6" points="486.42 517.18 1953.59 1.07 1953.59 181.98 486.42 698.08 486.42 517.18"/><polygon class="cls-6" points="703.24 382.26 1513.31 97.3 1513.31 197.18 703.24 482.14 703.24 382.26"/><polygon class="cls-6" points="463.55 394.47 2018.11 -144.56 2018.11 -104.67 463.55 434.36 463.55 394.47"/><polygon class="cls-6" points="-55.22 486.25 1499.34 -52.78 1499.34 -12.89 -55.22 526.14 -55.22 486.25"/><polygon class="cls-6" points="-272.7 745.64 1281.86 206.6 1281.86 246.49 -272.7 785.52 -272.7 745.64"/><polygon class="cls-6" points="860.86 126.87 1670.93 -158.09 1670.93 -58.21 860.86 226.75 860.86 126.87"/><polygon class="cls-6" points="463.81 322.4 1273.88 37.44 1273.88 137.33 463.81 422.28 463.81 322.4"/></g><polygon class="cls-7" points="225.04 347.58 1692.22 -168.52 1692.22 12.38 225.04 528.49 225.04 347.58"/><polygon class="cls-8" points="595.5 424.73 2062.67 -91.37 2062.67 89.53 595.5 605.63 595.5 424.73"/><polygon class="cls-9" points="869.04 65.63 1111.87 -19.78 1111.87 10.16 869.04 95.57 869.04 65.63"/><polygon class="cls-10" points="821.89 81.72 864.16 67.15 864.16 97.09 821.89 111.66 821.89 81.72"/><polygon class="cls-11" points="817.66 82.68 801.11 88.86 801.11 118.8 817.66 112.62 817.66 82.68"/><g class="cls-12"><polygon class="cls-13" points="382 193.28 1849.17 -322.82 1849.17 -141.92 382 374.19 382 193.28"/><polygon class="cls-14" points="715.34 329.4 1289.57 127.41 1289.57 198.21 715.34 400.2 715.34 329.4"/><polygon class="cls-15" points="715.34 227.61 1289.57 25.62 1289.57 96.42 715.34 298.42 715.34 227.61"/><polygon class="cls-16" points="657.38 296.89 1231.61 94.89 1231.61 165.69 657.38 367.69 657.38 296.89"/><polygon class="cls-17" points="517.42 280.55 1394.18 -27.87 1394.18 80.24 517.42 388.66 517.42 280.55"/><polygon class="cls-18" points="155.51 373.86 1032.27 65.44 1032.27 173.54 155.51 481.96 155.51 373.86"/><polygon class="cls-19" points="476.42 298.93 1353.19 -9.49 1353.19 98.62 476.42 407.04 476.42 298.93"/><line class="cls-20" x1="619.21" y1="347.29" x2="1358.58" y2="81.51"/><line class="cls-20" x1="377.46" y1="351.03" x2="1294.96" y2="21.22"/><line class="cls-20" x1="797.34" y1="235.61" x2="1714.84" y2="-94.2"/></g><polygon class="cls-21" points="834.46 66.96 1077.28 -18.45 1077.28 11.49 834.46 96.9 834.46 66.96"/><polygon class="cls-22" points="787.3 83.05 829.57 68.48 829.57 98.42 787.3 112.99 787.3 83.05"/><polygon class="cls-23" points="783.08 84.01 766.53 90.19 766.53 120.13 783.08 113.95 783.08 84.01"/></g></g><g id="OBJECTS"><polygon class="cls-24" points="220.61 55.65 997.25 -180.35 1035.34 -114.3 257.21 121.09 220.61 55.65"/></g></g></svg>