<svg xmlns="http://www.w3.org/2000/svg" xmlns:xlink="http://www.w3.org/1999/xlink" viewBox="0 0 377.19 44.15"><defs><style>.cls-1,.cls-10,.cls-11,.cls-9{fill:none;}.cls-2{isolation:isolate;}.cls-3{clip-path:url(#clip-path);}.cls-4{opacity:0.26;}.cls-5{fill:#111;mix-blend-mode:screen;}.cls-6{fill:url(#Nueva_muestra_de_degradado_1);}.cls-7{fill:url(#Nueva_muestra_de_degradado_1-2);}.cls-8{fill:url(#Nueva_muestra_de_degradado_1-3);}.cls-10,.cls-11,.cls-9{stroke-miterlimit:10;}.cls-9{stroke:url(#Nueva_muestra_de_degradado_1-4);}.cls-10{stroke:url(#Nueva_muestra_de_degradado_1-5);}.cls-11{stroke:url(#Nueva_muestra_de_degradado_1-6);}</style><clipPath id="clip-path"><rect class="cls-1" x="-185.3" y="-1020.26" width="1200" height="800"/></clipPath><linearGradient id="Nueva_muestra_de_degradado_1" x1="174.16" y1="22.14" x2="416.99" y2="22.14" gradientTransform="translate(-30.22 -91.24) rotate(19.3)" gradientUnits="userSpaceOnUse"><stop offset="0" stop-color="#e40210"/><stop offset="1" stop-color="#660027"/></linearGradient><linearGradient id="Nueva_muestra_de_degradado_1-2" x1="127.01" y1="73.65" x2="169.28" y2="73.65" xlink:href="#Nueva_muestra_de_degradado_1"/><linearGradient id="Nueva_muestra_de_degradado_1-3" x1="106.23" y1="84.98" x2="122.78" y2="84.98" xlink:href="#Nueva_muestra_de_degradado_1"/><linearGradient id="Nueva_muestra_de_degradado_1-4" x1="139.08" y1="23.47" x2="382.9" y2="23.47" xlink:href="#Nueva_muestra_de_degradado_1"/><linearGradient id="Nueva_muestra_de_degradado_1-5" x1="91.92" y1="74.98" x2="135.19" y2="74.98" xlink:href="#Nueva_muestra_de_degradado_1"/><linearGradient id="Nueva_muestra_de_degradado_1-6" x1="71.15" y1="86.31" x2="88.7" y2="86.31" xlink:href="#Nueva_muestra_de_degradado_1"/></defs><g class="cls-2"><g id="BACKGROUND"><g class="cls-3"><g class="cls-4"><polygon class="cls-5" points="301.13 -28.85 1768.3 -544.95 1768.3 -364.05 301.13 152.05 301.13 -28.85"/><polygon class="cls-5" points="-458 199.61 1096.56 -339.43 1096.56 -299.54 -458 239.5 -458 199.61"/></g></g></g><g id="Capa_3" data-name="Capa 3"><polygon class="cls-6" points="117.67 13.39 375.08 13.04 365.18 41.29 107.77 41.65 117.67 13.39"/><polygon class="cls-7" points="67.85 12.99 112.56 13.21 102.66 41.47 57.95 41.25 67.85 12.99"/><polygon class="cls-8" points="63.54 12.5 45.88 12.87 35.99 41.12 53.64 40.76 63.54 12.5"/><polygon class="cls-9" points="84.59 3.22 342 2.86 332.1 31.12 74.69 31.48 84.59 3.22"/><polygon class="cls-10" points="34.77 2.82 79.47 3.04 69.58 31.3 24.87 31.07 34.77 2.82"/><polygon class="cls-11" points="30.46 2.33 12.8 2.69 2.91 30.95 20.56 30.58 30.46 2.33"/></g></g></svg>