<svg id="Layer_1" data-name="Layer 1" xmlns="http://www.w3.org/2000/svg" viewBox="0 0 3651.02 3727.56"><defs><style>.cls-1,.cls-2{fill:#1d1d1b;}.cls-2{fill-rule:evenodd;}</style></defs><path class="cls-1" d="M149.31,1584.54c-11.44,0-20.7,0-29.95,0-4.78,0-7.27-2.58-7.41-7.33-.11-4-.12-8-.12-12q0-56,0-112c0-4-.13-8,.24-12,.35-3.71,2.56-6,6.53-6,2.66,0,5.32-.14,8-.14q182.79,0,365.6-.18c9.42,0,16.3,2.75,22.71,9.57q42.42,45.1,85.51,89.57c5,5.19,7.68,10.6,7,17.75-.25,2.65,0,5.33,0,8v409.85a76,76,0,0,0,0,8c.83,7.89-2.07,13.93-7.6,19.6q-42.54,43.59-84.51,87.75c-6.48,6.85-13.3,9.48-22.67,9.44-69.26-.32-138.51-.17-207.77-.17q-76.92,0-153.83,0c-4.66,0-9.33,0-14-.29-2.92-.21-4.66-2.16-4.89-5.15-.2-2.65-.33-5.32-.34-8q0-62,0-123.95c0-2,.11-4,.25-6,.21-3,1.82-5,4.89-5.06,8.65-.24,17.3-.27,26-.46,4-.08,5.95-2.45,6.19-6.21.22-3.32.18-6.66.18-10V1584.54Zm175.9,181v153.64c0,6-.13,12,.1,18,.24,6.59,1.73,8.26,8.3,8.31,23.26.16,46.53,0,69.79.16a16,16,0,0,0,12.33-5.2c3.24-3.34,6.44-6.72,9.84-9.9,4.1-3.85,6.38-8.27,6-14.07-.28-4,0-8,0-12V1627.12c0-4,.13-8,0-12-.6-14.69-16.1-30.23-30.86-30.41-21.26-.26-42.53-.06-63.8,0-1.33,0-2.66,0-4,.1-4.55.22-7.45,2.2-7.48,7.16,0,5.32-.11,10.64-.11,16Q325.2,1686.74,325.21,1765.55Z"/><path class="cls-1" d="M3268.26,1435.1q105.88,0,211.76,0c5.33,0,10.65.1,16,.25,3,.1,5,1.78,5.34,4.77a89.24,89.24,0,0,1,.5,9.95q0,73,0,145.94c0,2.66-.05,5.33-.16,8-.17,3.84-2.09,6.06-6,6.23-2,.09-4,.17-6,.17-40,0-79.91.08-119.87,0-11.23,0-11.25-.27-11.83-10.83-.14-2.66-.13-5.33-.11-8,0-5.22-3.19-6.79-7.68-6.79q-47,0-93.9,0c-4.68,0-7.53,1.91-7.53,6.93q.06,47,.15,93.95c0,3,1.71,4.85,4.83,5.11,1.33.1,2.66.23,4,.24,15.28.14,16.17.37,15.68-15-.06-2,.12-4,.24-6a5,5,0,0,1,4.95-5.08c3.31-.28,6.64-.4,10-.41q55.93,0,111.88,0c2.66,0,5.33,0,8,.14,5.84.42,7.63,2.48,8,9,.07,1.33,0,2.66,0,4q0,87,0,173.93c0,2.66-.09,5.33-.31,8-.32,4-2.79,5.73-6.54,6-.66.05-1.33,0-2,.05-42,0-83.9.06-125.86,0-6.92,0-7.85-1.21-8.27-8.24-.16-2.66-.05-5.33-.09-8,0-1.34,0-2.67-.14-4-.38-3.84-2.54-6-6.38-6.14s-8-.06-12,0c-4.16.06-5.62,2.87-6.08,6.4a46,46,0,0,0-.16,6c0,27.33-.1,54.65.05,82,.06,11.38.66,11.84,12.81,11.93,16.64.13,33.29-.07,49.94.1,8.5.09,9.87,1.25,9.89,8.64q.15,66,0,132c0,6.58-1.48,7.68-8.6,8-4,.17-8,.07-12,.07H3055c-4.66,0-9.32,0-14-.14-3.71-.13-6.29-1.84-6.49-5.91-.16-3.32-.23-6.65-.23-10q0-59,0-118c0-2-.05-4,0-6,.32-7,1.44-8.41,7.89-8.62,8-.24,16,0,24-.26,3.81-.1,6.06-2.41,6.26-6.27s.26-8,.26-12q0-161.93,0-323.87c0-4,0-8-.21-12a6.23,6.23,0,0,0-6.27-6.34c-6-.36-12-.17-18-.3-13.77-.28-13.77-.3-14-15,0-1.33,0-2.67,0-4q0-56,0-112c0-4-.05-8,.16-12,.19-3.76,2.17-6.22,6.1-6.38,5.32-.22,10.65-.26,16-.26Q3162.39,1435.08,3268.26,1435.1Z"/><path class="cls-2" d="M3290.28,2267.59l-259.39-142L3021.5,2166c-134.9,580.42-637.42,990.88-1213.8,990.88S728.81,2746.42,593.9,2166l-9.6-41.31L349.82,2259.87,39.65,2120.07l9.84,59c62.76,376.21,236.76,722.06,496.92,991.85,335.65,348.09,786.65,542,1261.29,542s925.66-193.9,1261.31-542c260.16-269.8,434.15-615.64,496.9-991.84l10.65-63.82ZM1807.7,3680.6c-865.56,0-1584.75-651.17-1727.52-1507l271.33,122.3,212.12-122.3C699,2756.19,1204.7,3189.2,1807.7,3189.2s1108.66-433,1244.08-1015.63L3290.07,2304l245.16-130.45C3392.46,3029.43,2673.26,3680.6,1807.7,3680.6Z"/><path class="cls-2" d="M3515.59,1323.34c-85.19-291.49-239.15-556.65-446.75-771.9C2733.2,203.43,2282.27,9.6,1807.7,9.6S882.22,203.43,546.58,551.42C339,766.67,185,1031.84,99.82,1323.34l-19.3,66,326.35-143.21,241.79,131.32L662,1345.6c198-472.82,647.39-780,1145.7-780s947.72,307.15,1145.7,780l13.41,32,253.35-139.22L3536,1393Zm-296.23-121.06L2982,1332.72C2785,862.38,2333.36,533.31,1807.7,533.31S830.39,862.38,633.44,1332.72L408.28,1210.43,129.62,1332.72C347.91,585.8,1016.67,41.91,1807.7,41.91S3267.5,585.8,3485.79,1332.72Z"/><path class="cls-1" d="M3289.53,2468.71a123.49,123.49,0,0,1-6.13,13.41,71.41,71.41,0,0,1-6.88,10.63c-2.18,2.7-4.27,4.15-6.35,4.43s-4.63-.32-7.75-1.78l-20.68-8.75L3230,2523.54l53.58,22.68a152,152,0,0,0,16.28-18.28,154.76,154.76,0,0,0,13.71-21.28,225.08,225.08,0,0,0,11.85-25.62,129.64,129.64,0,0,0,8.76-35.69,89.47,89.47,0,0,0-2.65-32.66,69.87,69.87,0,0,0-14.66-27.07q-10.39-11.79-27.14-19c-10.89-4.48-20.84-6.5-29.89-6a58,58,0,0,0-24.77,7.16,93.78,93.78,0,0,0-20.79,15.82,234.42,234.42,0,0,0-17.89,20.19q-6.79,8.73-13,16a88.69,88.69,0,0,1-12.41,12.12,31.41,31.41,0,0,1-13,6.05c-4.48.84-9.35.15-14.58-2-7-3-11.93-7-14.93-12.13a30.75,30.75,0,0,1-4.22-17.11,58.79,58.79,0,0,1,4.52-20c1.43-3.64,3.1-7.38,5.11-11.32a69,69,0,0,1,6.59-10.4c2.19-2.7,4.27-4.15,6.36-4.43s4.62.32,7.74,1.77l19.67,8.33,11.73-36.89-50.86-21.53a160.93,160.93,0,0,0-23.19,27.8,177.73,177.73,0,0,0-16.72,32.45,122.2,122.2,0,0,0-8.5,35.19,84.6,84.6,0,0,0,3,31.3,66.71,66.71,0,0,0,14.34,25.56,72.69,72.69,0,0,0,25.53,17.72q16.23,6.77,29.57,5.95a54.68,54.68,0,0,0,24.39-7,90.25,90.25,0,0,0,20.59-16.32,213.85,213.85,0,0,0,18-21.79c4-5.55,7.92-10.6,11.85-15.23a70.46,70.46,0,0,1,11.93-11.57,29.66,29.66,0,0,1,12.92-5.68q6.77-1.12,14.77,2.15c8.4,3.63,14.19,8.34,17.44,14.16a33.1,33.1,0,0,1,4.11,19.38A76.67,76.67,0,0,1,3289.53,2468.71Zm-337.25,540.54a121.87,121.87,0,0,1-10.7,9.86,68.29,68.29,0,0,1-10.34,7c-3,1.6-5.48,2.09-7.51,1.5s-4.14-2.17-6.46-4.77l-15.74-16.45-24.69,29.2,40.77,42.6a145.94,145.94,0,0,0,21.87-10.22,148.67,148.67,0,0,0,20.63-14,217.78,217.78,0,0,0,20.57-18.78,125.93,125.93,0,0,0,21.5-29.31,88.59,88.59,0,0,0,9.85-31.13,71.48,71.48,0,0,0-3.3-30.86q-5.13-15.07-17.82-28.51c-8.34-8.53-16.74-14.43-25.28-17.59a57.84,57.84,0,0,0-25.49-3.45,90.81,90.81,0,0,0-25.09,6.13,222.15,222.15,0,0,0-24.08,11.34c-6.36,3.51-12.37,6.67-18,9.42a85.06,85.06,0,0,1-16,6.13,30.88,30.88,0,0,1-14.24.31c-4.44-1.05-8.66-3.66-12.66-7.75-5.29-5.62-8.34-11.32-9.18-17.23a30.83,30.83,0,0,1,2.56-17.46,57.11,57.11,0,0,1,11.71-16.62c2.68-2.76,5.63-5.53,9-8.34a66,66,0,0,1,10-6.9c3-1.6,5.49-2.09,7.52-1.5s4.13,2.17,6.45,4.77l15,15.64,24.7-29.2-38.71-40.44a154.34,154.34,0,0,0-31.82,16.19,170.08,170.08,0,0,0-27.61,23.09,118.14,118.14,0,0,0-21.07,28.95,83.75,83.75,0,0,0-9,30,68.25,68.25,0,0,0,3.57,29.34,75.86,75.86,0,0,0,16.83,26.66q12.39,12.81,25,17.47a54.42,54.42,0,0,0,25.11,3.4,87.53,87.53,0,0,0,25.1-6.67,204.22,204.22,0,0,0,24.77-12.77c5.79-3.47,11.28-6.54,16.64-9.21a68.22,68.22,0,0,1,15.34-5.81,29.19,29.19,0,0,1,14,0q6.66,1.71,12.79,8,9.56,10.11,10.73,20.09a33.23,33.23,0,0,1-3.52,19.52A74.43,74.43,0,0,1,2952.28,3009.25Zm-418.69,368.13L2508.32,3315l-35.42,12.57,7.09,17.51a25.89,25.89,0,0,1,1.93,6.23,6.48,6.48,0,0,1-1,5c-1,1.46-3,2.86-5.82,4.11l-54.35,23.71-26.54-65.5,78-34-14.48-35.73-78,34-24.27-59.9,50-21.79c3-1.3,5.37-1.79,7.13-1.53a6.09,6.09,0,0,1,4.22,2.55,24.16,24.16,0,0,1,2.84,5.56l5.68,14,33.44-17.48-23.56-58.15-154.61,67.46,12.06,29.77,19.67-7.34,66,162.88c1.34,3.47,1.41,6.25.18,8.44a14.33,14.33,0,0,1-6,5.64l-10.71,5.91,11.49,28.37ZM1680,3555.59l89.72-1.31-.44-32.29-23.82-.8-1.94-143.62h.73l108.22,175.52,42.84-.63-2.82-209c-.06-4,.7-6.91,2.2-8.77a8.39,8.39,0,0,1,6.43-3.13l13.16-1.34-.41-30.77-89.35,1.3.44,32.29,24.18.79,1.91,141h-.73l-106-172.88-65.91.95.44,32.3,20.88.84,2.39,176.67c.05,3.74-.7,6.41-2.33,8.08s-3.93,2.53-7,2.7l-13.17,1.33Zm-546.94-192.66c-1.36,3.46-3.15,5.5-5.37,6.28s-5,.48-8.33-.59l-18.39-6.56-11.21,28.5,95.62,40.48,11.76-29.9-26.37-12.4,66.13-168.17,23,9.76c3,1.27,5,2.67,6.09,4.15a6.55,6.55,0,0,1,1.23,4.9,24.19,24.19,0,0,1-1.77,6l-6.5,16.54,35.55,12.18,23.52-59.81-177.33-75.08L1117.21,3199l33.61,17.1,6.51-16.53a24.65,24.65,0,0,1,2.62-5.32,7.38,7.38,0,0,1,3.69-3,8.62,8.62,0,0,1,5.77.73l26.45,11.2Zm-480-351.82a16.57,16.57,0,0,1-5.85,4.23,7,7,0,0,1-5.09.07,18.52,18.52,0,0,1-5.12-3.28l-9.3-8.09-21,21.68L669.12,3091l22.08-22.76L677.27,3052,797.06,2928.6a14.26,14.26,0,0,1,5.75-4,7.6,7.6,0,0,1,5.18.2,16.25,16.25,0,0,1,4.86,3l9.3,8.09,21.05-21.69L780.75,2849l-22.09,22.76,13.93,16.17ZM265.84,2466.2,303,2562.51l28.91-12-11.09-31.82L387.43,2491l33.46,86.79,34.68-14.39-33.46-86.79,60.18-25,23.53,61c1.21,3.11,1.64,5.59,1.35,7.42a6.41,6.41,0,0,1-2.53,4.33,22.54,22.54,0,0,1-5.41,2.86l-13.6,5.64,16.25,35,56.44-23.43-65.69-170.4-28.9,12,6.73,20.54-158.11,65.63c-3.36,1.32-6.05,1.35-8.19.05a14.85,14.85,0,0,1-5.27-6.33l-5.51-11.22Z"/><path class="cls-2" d="M1314.84,2536.8c8-5,5.64-4.24,18.13-6.25,4.61-4-.41-.69,8.58-6l23.34-10.83c12.82-5.6,20.11-8.95,33.8-15,12.58-5.61,23.58-10.77,34-14.86,9.21-3.63,34.34-4.51,24.4-26.34a42.84,42.84,0,0,1-3.34-7.22,161.05,161.05,0,0,1-7.14-29.89c14.31-9.69,33.56-28.41,48.83-34-2.65-19.46-10.29-41.42-12.93-60.88,19.5-16.52,29-40.13,49-57.89,11.55-10.27,5.51,3.2,9.65-7.7,4-10.58-11.86-39.88-14.74-50.39,31.58-26.76,32.26-37.87,65.41-66-6.91-50.85-41.79-63.92,25.76-109.67-1.93-31.89-15.2-47.51-1.18-68.49,2.94-4.4,32.33-33.15,36.46-36.65-5.42-19.82-12.13-36.83-17.23-55.45,14.36-12.16,29.26-31.82,43.61-44-2.65-19.46-10.29-41.41-12.93-60.87,78.25-66.32,20.63-57.7,44.4-100.8,38.27-69.36,14.34-31.78,14.93-77.65.22-17.25,10.24-20.32,13.51-34.75,7.34-32.5-21.78-26.63,11.52-75.12,28.43.77,82.55,16.56,108.72,22.73,24.81,5.84,83.28,20.77,106.64,19.83l10.23-9.25c34.57-26.13,76.7-57.61,97.58-30.45l-74.93,47.85c-12.62,8.54-24.66,18.06-40.23,23.18,1.81,22.49,4.07,15.76,6.77,35.56-15.34-2.93-173.75-44.64-187.1-34.12l4.61-.3,9.52,4.53c36.63,5.59,71.27,20.52,103,30,15.73,4.67,31.45,9.19,49.49,14.78,26.5,8.22,24.4,12.06,49.37,3.85,5-5.45-1.13.5,7.57-7l53.45-39.15c38.75-31,36.77-11,74.74-3.78-6.41,7-1.28,2.12-10.35,9.13l-73.79,52.91-26.6,22.1c-8.74,6.36-17.7,11.36-26.53,17.35,1.47,24.46-1.85,21.44-2.14,41.28-75.78-14.47-149.67-37.79-225.19-52.21-10-4.56-4.39-3.5-19.3-1.72l15,7.14,4.61-.3,9.52,4.52,116.11,35.47c20.94,6.4,39.7,13,58.95,19.36,27.44,9.07,26.35,16.88,55.37,7.33,6.41-7,1.28-2.12,10.34-9.12,144-111.2,109.06-78.38,179.47-64.93l-123.14,105.71c-11,19.12-32.63,24.86-43.6,44l3.71,61.47c-49.59-9.47-95.09-22.17-144.4-32.85L1746.46,1794l-4.92-4.82c-14.06.57-16.93-1.22-28-3.32,7,6,5.57,5.2,14.88,8.79,6.36,2.45,11.69,3.21,18.3,4.48,20.07,9.1,49.68,15.43,73.7,22.79,34.59,10.6,197.75,65.64,218.48,66.21l42.53-40.22c178.72-168.69,101.66-97.21,200.11-78.41l-107.93,106.18c-11.38,10.74-23.31,26.94-36.4,31.76-12.8,24.54-48,41.13-60.79,65.67l3.71,61.47-173.9-45.26c-58-13.68-115-34-173.89-45.27-10.43-4.73-18.67-7.76-32.87-8.14a32.87,32.87,0,0,0,3,1.68l35.07,16.41c24.65,2.72,229.52,73.82,271.78,87.17,32.75,10.35,70.15,28,86.15,18.12,3.66-4,7-7.69,11.81-12.5l131.81-126.14c55-52.08,44.21-52.23,81.75-24.36,10.86,8.07,17.91,12,29.54,17.86L2180,2079.52c-5,8.73-23.57,26.54-32.87,35.24-4,3.79-15.56,13.57-17.9,16.18-11.51,12.83-7.05,4.26-9.72,19.37,2,32.49,7.19,42.47,9.24,76.54-35-6.68-73-20.32-107.59-29.66L1813,2140.07c-31.19-9.41-76.06-17.78-103-30-37.26-7.12-72.78-22.22-108.14-29,14.84,12.64,85,30.83,104.16,39.52l384.07,132.94c16.36,5.91,40.12,15.58,55.28,18.48,10.85-9.2,20.5-19.05,30.71-27.71L2307.31,2108c104.86-107.64,53.75-78.33,162.4-57.58-4.24,8.14-39.56,46.76-47.59,54.53C2391,2135,2298.75,2243,2274.42,2263.66c-5.88,10.25-38,43.31-48.31,53.82-9.47,9.6-12.29,15.6-22.93,25.7-12.63,12-15.95,10.1-19.34,29.22,3.19,23.46,12.56,62.63,14.48,86.49-105-20.06-438.48-141.68-537.05-160.5l21.58,16.88,37.79,13c25.52-2.51,6.85-1.12,14.13,4.23,17.37-1.85,4.45-1.6,9.53,4.52,25.51-2.51,6.85-1.12,14.13,4.23,17.19-1.83,4.37-1.87,9.85,5.78,75.18,28.28,154.45,54.1,220.52,78.5,38,14.05,74.09,26.41,112.14,40.46l110,39.15,12.6-11.85,76.67-88.66c9.56-11.64,12.1-12,21.68-22.11l93.18-106.18c13.72-17.33,24.64-25,39-43.63l77.09-83.41c25.52,4.87,40.84,21.66,66.37,26.54-20,38.39-148,187.64-188.28,234.59-20.59,24-38.82,55.68-61.34,74.77l-55.88,70.48c-8.95,17.14-41.1,47.53-45,62.2-3.16,11.85,11.91,79.26,13.12,99.3l-655.95-214.49-84.8-25.34c19.18,16.34,60.67,24.61,83.06,31.69,9.67,3.06,18.8,6.88,27.18,10l110.15,46,532.36,197.63c15-12.77,60-84.16,78-106.57l275.91-389.6c25.7-44.42,32.54-20.93,71.23-31.33,10.18-2.73,4.45-.38,9.82-4.73l-587-758.95c-9.3-12.1-29.54-41.38-40-48.82-27.21,9-57.2,36.28-80.09,51.55-45.86,30.59-46.39,37.83-83.25,27.85-64.63-17.49-125.05-33.52-190.85-46.09-4.09,27.78-38.26,107.1-50.21,138.68-17.5,46.24-31.39,88.35-51.74,132.39-34.52,74.72-68.93,195.5-103.26,269.79-37.46,81.06-69.91,195.19-104,269-20.86,45.14-35.13,88.51-53.06,135.9-11.77,31.11-44.8,107.59-48.9,135.07"/><path class="cls-2" d="M1808.91,1064.93c-4.74,5.35,7.95,4.53-13.44,5.94l-165.33,54.88c-18.37,5.73-36.55,13.33-52.58,15.87,2.76,45.77,8.93,71,11.72,117.67,2.53,42.31,8.47,63.76,11.08,107.1,2.57-.17,7.52-.59,8.93-.24,8.31,2.08,5.22,1.34,9.81,4.16,12.19.34,12.94.93,23.09,4,6.36,1.89,3.07.63,10.12,3.76,9.55,4.24,4.22,1.59,9.19,5,9.38-8.46,4.64-4-6.57-13.76-45.64-39.64-33.6-38.64-38.33-117,24.44.67,47.84,10.75,69.81,16.68l212.23,57.55,2.16,35.85c8.47,12.93,8.14,58.2,9.25,76.54,24.57-1.59,49.16-3.29,73.74-4.77,66.77-4,32.47-2.91,68.48-14.76,13.2-14.46,90.3-57.12,115.79-74.38l93.42,91.63,4.92,4.83,4.92,4.82,144,143.63c25,24.48,46.28,45.59,71.34,69.89l71.57,75.1c49.55,48.6,95.43,93.76,145.05,142.27,25.44,24.87,43.42,47.42,69.15,72.65,20.71,20.3,53.74,57.08,74.68,71l17.95-11.47c-7.54-27.47-15-28.92.47-52.31,29.92-45.11,45.77-54.34,38.26-89.5-5.37-25.16-6.23-42.81-18.23-54.9l-95.17,109c-15.7-10.21-32.85-27.77-48.55-38,8.32-15.95,57.6-93.45,67.83-102.1-1.46-18.18-8.63-45.19-12.94-60.89l-79.53,81a311,311,0,0,1-29.45,28.94l-74.8-71c26.29-23,62.34-69.22,83.94-83.81,4.83-13.45,2.09-18.56-2.58-34.91-5.42-19-2.25-21.5-15.27-30.79L2570,1719.9l-84.64-80.68c26.27-22.91,53-57.07,75.84-73.73,5.08-12.55,1.49-22.35-1.56-36-4.86-21.72.08-15.38-12.15-29.17l-100.11,104.18-63.62-57.58c29.11-24.67,54.92-53.27,83.18-77.41l8.62-10.84c-6.55-12.93-3.45-13.13-8.82-27.6-9.08-24.45,3.67-9.93-12.42-17.29l-105.59,89.14c-13.87-9-29.35-19.43-39-33.46,15.46-13.11,28.09-25.24,43.2-39.55,11.85-11.22,30.44-32.94,44.61-38.13,5.63-15.66.87-36.33-12-45.52-24.45,16.61-99.81,73.13-120,79.79l-20.78-23.47,84-78.33c-1.84-13.59-6.87-30.89-11.7-40.4-14.34,5.3-19.87,13.48-30.22,23.34-10,9.53-17.85,15-28.89,24.67-37.61,32.78-32.77,41.89-56.64,26.37,6.1-11.69,13.54-16,22.63-26l23.82-24.83c15.8-16.92,27.76-33.8,54.56-38L2246,1257.57c-20.56,1.32-33.74-.77-54.41-3-17-1.83-28.73-1.9-52.14-.38l-1.86-30.68c-3.05-50-.53-85.21-3.76-138.64l-9.35.6-112.91,52.93c-160.28,70.61-83,67.79-235.7,39.68-32.8-6-99.71-22.33-128-20.49,12-13.1,81.07-44,95.78-50.64,17.81-8.07,84.83-35.89,97.1-49.33-13.24,4.36-13.82,6-31.86,7.3m-196.33,120.68c29.29-1.91,213.58,41,257.5,50.5,26.58,5.73,35-4.23,57.77-16,28.89-14.91,147-78.1,167.62-81.37l2.17,35.86c-19.12,3-43.92,20.79-59,28.87-19.23,10.29-34.63,18.09-54.51,28.46-39.95,20.83-79.29,52-111.57,45.13-35-7.45-227.29-57.62-257.81-55.63Zm304.18,134.5c15.93-10.79,27.45-16.93,46-27.22,27.94-15.54,111.06-69.82,132.79-77,2,32.5-2,43.07,0,77.14-28.25,9.3-105.6,85.84-137.58,96.37C1953.84,1374.4,1926.43,1334.12,1916.76,1320.11Z"/><path class="cls-2" d="M2501.22,1729.51l4.91,4.83ZM2117.4,1425.34l481.92,615.93c16.51,20.17,95.16,133,114,137.29,12.84-24.62,42-55.21,55.27-80.74l-67,40.29c4.23-23.55,53.77-87.5,58-111.7-16.86,14.28-73.21,72.32-87.83,77.7,8.69-21.55,24.48-50.42,27.92-73.81l-43.49,15.17c-1.38.62-5.36,2.51-6.58,3.19-11.91,6.66-3.08,1.19-8.59,6-9.79-6.81-5.74-2.47,1.6-12.89l53.14-89.24c-1.6.09-66.8,53-80.56,57.52l33.3-88.67-76.63,47-65.16-69.6c8.83-7.49,27.74-26.83,36-37,16.25-19.91,18.88-23.64,38-39.84l-81.19,47.27,21.12-48.43c-18.1,2.77-32,14.64-45,23.42,4.22-28.69,27.69-55.68,31.91-84.36-11.38,9.65-41.48,37.09-47.9,49.4l1.6-12.89c2.65-3.78,3.08-4.86,5.73-8.84,17.44-26.27,15.27-16.26,34.42-53L2451.18,1772c-10.49,10-.45.26-7.08,7.52-12-8.32-4.35,1.34,12.39-26.4,6.16-10.21,11.42-16.65,16.77-26.92-18.89,6.22-51.74,24.72-67.26,35.23,3.42-19.29,4.26-6.93,7.67-26.21-16.81,5.53-12.37,9.29-31.64,12.34-6.7-22-47.61-64.67-60.86-88.61l52.51-49.7-64,25.59c.71-.91,36.19-36.21,40-39.46l-54.78,25,36.26-43.14c-21.37,5.51-41.66,20.37-59.82,23.25-8.37-12.14-17.33-23-25.2-34.36,13.46-9.12,36-25.15,43.91-38.86l-42,21.44a27,27,0,0,0-2.82,2l6.73-22.31c5.63-9.58,5.29-10.12,9.23-19.87l-18.43,1.2c8.06-15.46,8.9-7.48,12.27-26.51-15.78,5.19-35.75,19.84-49.14,28.9,2.37-16.11,5-15.21,7.36-31.33-20.22,1.82-14.14,4.4-31.94,7.22l8.24-21-23.31,1.37c11.75-22.52,19.63-17.9,30.1-38-13,2.06-30.87,12.08-40.55,18.07,3-20.2,9.29-20.57-15.06-19.59,6.92-13.28,15.32-18.28,26.1-27.41l-4.2-5.73c-1.54.09-2.86,1.77-3.17,3.32Z"/><path class="cls-2" d="M1393,1380l28.19,8.33c12.85,2.79,19.75,5,32.37,8.81,18.57,5.66,40.93,11,61.17,16.55,20,5.46,40.51,11,61.12,16.62,51,13.87,46.38,17.86,56.15.84-43.9-8.39-187.31-59.1-216.29-57.94l98.94-71.63c7.53-4.79,10.74-6.37,18-11.26,9.3-6.27,9.71-6.25,16-13.08l-153.25,66.45c.91,22.53-2.16,16.2-2.44,36.31"/><path class="cls-2" d="M1703.9,1395.66c5.82,13.42.32,5.38,13.35,10.73l57,5.26-5-82c-22.13-4.22-44.54-12.53-70-10.87Z"/><path class="cls-2" d="M1123.72,1417.72c-57.31,20.38-25.32,105.19,30.35,84,47.33-18,27.34-104.53-30.35-84m184.43,478.38,3.41,17.13c13.57,12.45,31.58,90.33,38.92,116.71,7.52-37.64-2-93.4-5.16-132-16.09-32.09-7.2-50.74-58.22-125.27-36.22-52.92-52-53-46.15-140.81,17.24-11.83,40-20.5,58.09-31.64,22.55-13.92,31.72-24.65,47.52-39.73-29.72,12.17-64,38.88-103.41,36.42-9.18-29-10-33.31-24.85-53.93-15.68-21.82-24.59-22.24-59.58-17.08-41.91,6.16-86.44,25.91-108.47,49.8l107.31,67.51c3.87,51.59-21.75,119.75-37.3,164.89-31.56,2.41-62.37-15.5-164.24-6.36,26.74,19.52,70.43,27.48,104.27,39,33.32,11.38,73.29,39.31,98.17,45.53,21.61-26.49,28.26-91.51,41.78-128.77C1253.91,1801.25,1274.72,1827.76,1308.15,1896.1Z"/><path class="cls-1" d="M2135.35,433.25l96.1,28.6L2240,430.8l-31-10.42,19.78-71.59,86.6,25.76,10.29-37.25-86.59-25.77L2257,246.88l60.9,18.12c3.11.92,5.26,2.09,6.48,3.44a6.51,6.51,0,0,1,1.74,4.73,24.25,24.25,0,0,1-1.14,6.19l-4,14.61,36.62,8.13,16.75-60.64-170-50.59-8.58,31,19.76,7.07-46.94,169.85c-1.05,3.57-2.68,5.79-5,6.75a14,14,0,0,1-8.05.44l-11.92-2.36Zm-323-244.09h1.09l33,108.29h-68.12Zm-93.39,167.57a20.29,20.29,0,0,1-4.09,7.73c-1.58,1.65-3.84,2.6-6.89,2.91l-12.09,1.14v30.78h84.6V367l-22-1.14,11-33.43h85.69l7.69,23.55q1.83,6.18-.55,8.55t-8.24,2.85l-13.91,1.14v30.78h94.48V367l-20.87-1.14h-.37L1838.66,146.6H1754.8v30.78l23.07,2.28Zm-318.26,76.74a115.08,115.08,0,0,1-13.83,3.79,66.21,66.21,0,0,1-12.27,1.41c-3.39,0-5.8-.71-7.35-2.18s-2.76-3.87-3.7-7.28l-6.9-22-34.73,14.51,17.88,57.1a149.64,149.64,0,0,0,48.48-1.76,208.32,208.32,0,0,0,26.51-7.14,119.85,119.85,0,0,0,31.93-16.1A85,85,0,0,0,1469,430.6a70.74,70.74,0,0,0,10.46-29.1c1.31-10.56.16-21.83-3.52-33.77-3.74-11.53-8.67-20.72-14.91-27.54a59.88,59.88,0,0,0-21.26-15,91.07,91.07,0,0,0-25.06-6.26,220.41,220.41,0,0,0-26.42-1.15c-7.2.16-13.94.17-20.15,0a84.47,84.47,0,0,1-16.93-2,31.36,31.36,0,0,1-12.85-6.39c-3.51-3-6.14-7.31-7.93-12.84-2.28-7.49-2.53-14-.71-19.67a30,30,0,0,1,9.87-14.38,54.42,54.42,0,0,1,17.67-9.36,118,118,0,0,1,11.63-3.25,63.54,63.54,0,0,1,11.92-1.49c3.4,0,5.8.71,7.36,2.18s2.75,3.87,3.69,7.28l6.56,21,34.73-14.5-17-54.21a150.8,150.8,0,0,0-35.43-.44,163.31,163.31,0,0,0-34.69,7.7,112.31,112.31,0,0,0-31.38,16,80.35,80.35,0,0,0-21.11,22.57,67.55,67.55,0,0,0-9.56,27.86,78.15,78.15,0,0,0,3.43,31.67q5.49,17.23,14.7,27.27a56.18,56.18,0,0,0,20.93,14.79,87.13,87.13,0,0,0,25.3,5.79,199,199,0,0,0,27.66.19c6.68-.38,12.92-.55,18.86-.43a67.25,67.25,0,0,1,16.22,2,29.79,29.79,0,0,1,12.51,6.57q5.22,4.64,8,13.1,4.13,13.49.83,23a32,32,0,0,1-11.62,15.77A71,71,0,0,1,1400.65,433.47Zm-250.7,155-33.57-58L1083,548.17l9.43,16.29a25.81,25.81,0,0,1,2.77,5.88,6.51,6.51,0,0,1-.33,5.09c-.79,1.59-2.53,3.27-5.19,4.93l-50.54,31.51L1003.91,551l72.51-45.21-19.24-33.22-72.51,45.21L952.42,462l46.46-29c2.77-1.73,5.06-2.57,6.84-2.57a6,6,0,0,1,4.52,1.91,23.12,23.12,0,0,1,3.58,5.08l7.55,13,30.7-22.24-31.31-54.07L877,463.85l16,27.69,18.46-10.18,87.71,151.45c1.8,3.24,2.25,6,1.33,8.33a14.49,14.49,0,0,1-5.16,6.47l-9.79,7.44,15.28,26.38ZM587.17,812.68l21-25.91A92.07,92.07,0,0,1,629,767.26a54.08,54.08,0,0,1,24.93-9.06c9.06-1,18.9.76,29.63,5.14s22.36,11.95,35,22.85c14.92,13.07,25.73,26.12,32.29,39.19s9.27,25.68,8,38-6.39,24-15.21,34.87l-24,29.69Zm116,192.3,66.85-82.67a136.72,136.72,0,0,0,18.76-30.21,108.74,108.74,0,0,0,9.08-33.68,102,102,0,0,0-3-36.23c-3.26-12.42-9.18-25-17.66-37.77S757.1,758.82,742.45,746q-21.93-19-43.29-26.86c-14.3-5.27-28.19-7-41.78-5.38a92.82,92.82,0,0,0-39.28,14.58q-18.87,12.09-35.77,33l-64.5,79.76,23.84,20.76L555.93,846,686.38,959.57c2.72,2.45,4,4.9,3.92,7.47a15.41,15.41,0,0,1-2.89,7.81l-6.93,10.34Z"/><path class="cls-1" d="M2936.48,788.08a164.52,164.52,0,0,1,21.55-14.9,105.9,105.9,0,0,1,22.64-9.83,66.2,66.2,0,0,1,22.57-3,49.61,49.61,0,0,1,21.33,6c6.84,3.63,13.12,9.3,18.92,16.9,6.15,8.27,9.87,16.5,11.25,24.71a52.84,52.84,0,0,1-1.22,23.89,78.62,78.62,0,0,1-10.25,22.29A131.51,131.51,0,0,1,3027.54,874a192,192,0,0,1-17.84,16.31,181.54,181.54,0,0,1-21.54,15.21,114.77,114.77,0,0,1-22.5,10.45,66.31,66.31,0,0,1-22.26,3.66,46.86,46.86,0,0,1-21-5.47c-6.72-3.48-12.94-9-18.7-16.51q-9.61-12.93-12.21-25.38a53.31,53.31,0,0,1,.25-24.15,75,75,0,0,1,9.64-22.37,125,125,0,0,1,16-20.16,199.77,199.77,0,0,1,19.15-17.46m102,138.61q21.89-17.85,35.11-35.77t18.92-35.36a95.12,95.12,0,0,0-1.81-65.87,123.28,123.28,0,0,0-38.61-51.48,105.77,105.77,0,0,0-29-15.83,96.32,96.32,0,0,0-34.47-5.25c-12.28.24-25.37,3.13-39.06,8.6s-27.94,14.22-42.78,26.09q-24.63,20.08-38.71,41.18t-17.94,42.52a93.89,93.89,0,0,0,1.88,42.51q5.73,21,20.88,41.1c9.92,13.18,21,23.43,33.22,30.86a88.86,88.86,0,0,0,39.59,12.67q21.21,1.62,44.55-7.19T3038.52,926.69ZM2570.69,581.06c-1.85,3.2-4,5-6.3,5.45s-5-.26-8.09-2l-17.2-9.4-15.28,26.39,88.52,55.19,16-27.69-23.92-16.24,31.31-54.07,105.3-66a30.49,30.49,0,0,1,8.62-3.94,11.25,11.25,0,0,1,7.71.82l10,4.9,15.28-26.39L2715.17,426l-16,27.68,14.94,11.09-73.45,46.42-1.25-.79,6.13-73.31c.29-4.55,1.57-7.74,3.83-9.43s5.19-1.71,8.86.06l10,4.89,15.28-26.38-76.6-47.75-16,27.68L2605,396.33l-7.56,138.47Z"/><path class="cls-1" d="M1311.19,1948c-6,9.7-14.34,24-20.84,30-9.26,17.75-19.94,32.86-31.29,51.23-10.44,16.92-19.28,34.46-32.26,45.47-2.73,15.4-12.36,25.47-20.21,38-6.07,9.66-15,25.22-21.85,31.58-8.13,15.59-49,82.6-59.25,91.28-11.07,27.47-30.43,51.81-46.34,75-8.93,17.21-21.13,32.07-30,48.1-12.88,23.23-1,25.3,4.22,55.32,23.25-1.51,8.93-.41,14.64,4.37,10.9-6.1,6.94-1,11.35-19.45,4.17-24.07,47-89.47,61.67-114.38l178.06-311.3C1317.2,1966.72,1314.3,1957,1311.19,1948Z"/><path class="cls-1" d="M1493,1656.22c-3.34,18.89-5.14,13.36-15.25,28.41-7.38,11-9.48,17.55-18.52,25.21-6.92,17.19-38.61,70.22-50.65,80.43-5.52,13.71-20,39.46-29.47,48.2-4.76,9.13-14.57,26.09-24.54,41.3a103.28,103.28,0,0,0,4.61,10.7l1.43,2.87.27,3.22c.08,1,.17,2.07.26,3.11l172-300.64c-4.55,7-9.4,14.27-13.49,20.64C1510.43,1633.94,1504.93,1646.07,1493,1656.22Z"/><path class="cls-1" d="M1533.07,1599c4.16-6.46,8.06-12.76,10.86-18.12,8.76-16.81,12.43-16.4,20.87-37.36Z"/><path class="cls-1" d="M879.32,1989.24c36.28-2.36,233,64.88,282,74.23-.88-.74-2.43-2.95-2.76-2L1142,2049.3c-20.73-3.26-116.46-44.51-144.1-55.28-26.87-10.47-46.83-19.47-72.5-29.82-13.9-5.61-22.82-9.24-36.55-14.53l-36-15.28c29.56-9.73,85.8-52.84,121-64.43.88-.78,2.2-1.66,2.77-2.1l2.77-2.1c.71-.54,2-1.52,2.77-2.11,1.08-.82,4.44-3.3,5.58-4.16,7.51-5.6,15.11-11.92,23.11-16.69-19-5.64-38-12.06-54.25-21.6l1.27,27.4-133,82.49c2.24,37.09-1.51,51.59.65,87.38-20.49,6.74-42.42,24.47-59.81,37.72-18.8,14.3-37.53,24.18-56,36.66l5.57,92.16c25,.69,59.66,17.7,80.84,24.84l230.71,78.34-14.36-9.45c-5.54-3-13.3-6.46-19.19-8.87l-116.74-51.2c-20.8-8-81.61-31-94.15-46.63l-30-61.41-5.91-9.65,120.76-80.11C872.41,2008.32,876.93,2002.72,879.32,1989.24Z"/><path class="cls-1" d="M1262.05,1892.36l-9.22.6C1260.32,1899.76,1255.43,1900.08,1262.05,1892.36Z"/><path class="cls-1" d="M1182.81,1875.88c25.44,7.24,46.57,12.6,55.89,12.86-5.2-4.43-26.08-12.87-52-22.33Q1184.89,1871.3,1182.81,1875.88Z"/><path class="cls-1" d="M1037.56,1783.75c25.82-14.76,54.88-33,72.36-35.78,7.37-14.12,14.41-22.82,22.25-27.69,2.87-10.87,5.33-21.75,7.12-32.4l-19.56-7.4c5.84-1.92,13.41-5.71,21.91-10.47a168.27,168.27,0,0,0,.75-17.46l-14.85-9.34c-17.52,9.84-34.78,19.55-50.19,24.62l4,66.59c-18.24,1.64-47.67,18.4-66.1,26.75s-31.55,16.57-48.58,23.49A544.5,544.5,0,0,1,1037.56,1783.75Z"/><path class="cls-1" d="M1254.44,1580.63a89.83,89.83,0,0,0,19.45-4l-23.72-8.64C1251.71,1572.13,1253.11,1576.39,1254.44,1580.63Z"/><path class="cls-1" d="M1319.79,1747.87c-6.63-2.58-6.81-2.14-14.06-4.33-12.21-3.68-16.18-5.47-27.15-9.38q4.23,5.67,8.43,11.32l17.37,5.28,28,3.32a29.74,29.74,0,0,0-3-1.68Z"/><path class="cls-1" d="M1403.25,1626.05c5.4,4.91-7.75,5.65,14.13,4.23C1412,1625.37,1425.13,1624.63,1403.25,1626.05Z"/><path class="cls-1" d="M1489.32,1517c-21.39-11.16-159.21-46.64-162.15-54-.59-1.49-2.23-.78-3.25-1.41,20.06-6.6,31-16.86,54.37-19l3.37-20.79c41.19-2.68,77.83,19.69,116.74,18.12-5.08-3.43.43-.69-9.24-4.87l-108.58-33.74c-17.52,6.39-13.34,9-16.71,32-24,2.16-39.22,12.76-59,19.26-.28,19.65-5.22,42.42-5.5,62.07-15.72,1.42-45.28,16.49-63.64,25.86a127.47,127.47,0,0,1,10,17c.78,1.64,1.52,3.32,2.22,5,13.51-5.49,32.56-15.85,43.72-21.66,15.15-7.87,35.53-15.17,49.45-23.78l8-21.09c28.35-1.84,42.24,4.14,67.39,8.67l63.48,13.68,4.92,4.82,9.22-.6a12.9,12.9,0,0,1,2.33-3.65C1495.41,1519,1493.18,1519,1489.32,1517Z"/><path class="cls-1" d="M1496.47,1518.78c1.15-.28,1-.93,0,0Z"/><path class="cls-1" d="M1389.12,1621.83c5.4,4.91-7.75,5.64,14.13,4.22C1397.85,1621.15,1411,1620.4,1389.12,1621.83Z"/><path class="cls-1" d="M1238.7,1888.74c5.4,4.91-7.75,5.64,14.13,4.22C1247.43,1888.06,1260.59,1887.31,1238.7,1888.74Z"/><path class="cls-1" d="M1353.8,1605.74l-23.29-8.49c-3.93,3.26-7.94,6.34-12.1,9.29,21.89,6.51,55,15.92,70.71,15.29l-18.27-10C1366.25,1610,1360.69,1608.23,1353.8,1605.74Z"/><path class="cls-2" d="M1409.45,2128.5c-17.68-11.41-40.54-21.55-55.3-37.3l-1.18,5.93-3-10.88a56.32,56.32,0,0,1-3.48-5.08l2-.13-13-46.62c0-.13-.07-.27-.11-.4l-202.24,363.42c-7.8,16.3-2,18,.71,37,16.19.53,98.65,30.37,113.37,38.91,6.29-5.67,3-.57-18-15.64-19.77-14.17-54.28-30.42-66.63-50.85,31.32-1.33,88,16.41,121.66,22.95-18.68-12.06-80.21-46.73-91.88-66,27.65-1.8,79.37,8.19,107.22,13.6-19.73-12.74-72.87-44.14-82.36-61.5,18.66,2.87,81,20.8,96.34,29.73,6.9-6.23,1.91-.17-17.92-15.88-8.81-7-12-9.78-21.61-16.78l-40.54-34.13c35.92-1.53,67.89,17.58,102.92,19-21.24-20.66-61.81-30.84-77.44-56.67,28.57-1.86,74.13,8.36,102.61,13.9-13.27-8.67-26.67-14.88-40.78-23-8.53-4.93-14.06-7.67-21-11.83l-19.9-16.39,92.46-.87-72.21-46.73c35.58-2.31,58.18,3.32,88.16,4.56l-46.28-26.9c-18.85-12-3.51,6-16.4-15.32C1352,2116.81,1384.48,2123.65,1409.45,2128.5Z"/><path class="cls-2" d="M1674.94,1468.79l22.83-4.76-28.62-14.23-11.81.77c-2.81,16.84-22,44.92-31.34,61.27l-257.64,463c1.18,20.37,1,40.41-2.63,58.39l-9.46,47.39c39.52-2,45.71,1.59,64.22.9-21.43-12.18-43.42-16.93-57.46-32.26l60.33-3.92c-18.61-10-35.6-13.78-48.36-27.71l78.64,0L1411,1985.7c-.83-.74-1.9-1.73-2.7-2.48l-8.11-8.39c27.4-1.78,45.56,1.05,69.74,5.75l-48.56-38c27.41-1.79,45.57,1.05,69.74,5.75-22.69-14.66-44.37-26.15-53.47-42.81l59.9-3.9c-19.27-10.85-34.57-18.17-43.64-33.16,27-1.75,40.72,2,60.22,1.23-14.43-15.15-24.86-16.26-34.42-33.76,25.49-1.66,32.42,1.06,51,1.83-11.06-11.61-21.89-24.11-30.13-39.19l46.08-3c-15.51-8.73-25-12-34.11-28.64,25.49-1.66,32.42,1.06,51,1.83-16.09-9.15-18.86-7.06-33.79-23.52l46.21-3c-11-15.52-17.06-20.87-25.65-39.48,24.33-1.58,28.79,1.41,46.38,2.13-11-11.6-21.87-24.11-30.11-39.18l46.21-3-21.63-22.62,29.16-3.58c-11.94-12.54-20.8-17.58-29.81-34.06,24.33-1.58,28.8,1.4,46.39,2.13-11.23-11.79-16.27-13.45-24.9-29.24l46.22-3c-17.68-10-13.73-1.32-24.42-19l27.67-2.31c-9.5-9.11-13.1-5.57-29.21-23.31l51.28-3.33.17-3.93c-9.58-3.31-9.3-1.86-18.88-9.07-.13-.1-7-6.06-7.85-6.9s-4.71-3.38-5.37-5.65c-.54-1.91-1.85-2-2.78-3.05l41.48-2.7A286.62,286.62,0,0,1,1674.94,1468.79Z"/></svg>