<svg id="Layer_1" data-name="Layer 1" xmlns="http://www.w3.org/2000/svg" viewBox="0 0 16324.09 9335.89"><defs><style>.cls-1,.cls-4{fill:#231f20;}.cls-2,.cls-3{fill:#fff;}.cls-3,.cls-4{fill-rule:evenodd;}.cls-5,.cls-7{fill:#ed1c24;}.cls-6{fill:none;stroke:#ed1c24;stroke-miterlimit:10;}.cls-7{font-size:1296px;font-family:Impact;}</style></defs><ellipse class="cls-1" cx="8160.53" cy="5035.64" rx="1754.65" ry="1820.97"/><path class="cls-2" d="M6503.5,4759.49c-11.44,0-20.69,0-29.94,0-4.78,0-7.28-2.57-7.41-7.33-.12-4-.13-8-.13-12q0-56,0-112c0-4-.13-8,.24-12,.34-3.71,2.56-6,6.52-6,2.67,0,5.33-.14,8-.14q182.8,0,365.6-.18c9.43,0,16.3,2.75,22.71,9.56q42.42,45.1,85.52,89.57c5,5.2,7.67,10.61,7,17.76-.24,2.64,0,5.33,0,8V5144.6a79,79,0,0,0,0,8c.83,7.88-2.07,13.93-7.59,19.59q-42.54,43.61-84.52,87.75c-6.47,6.85-13.3,9.49-22.67,9.44-69.25-.32-138.51-.17-207.77-.17q-76.92,0-153.83,0c-4.66,0-9.33,0-14-.3-2.92-.2-4.67-2.15-4.9-5.15-.2-2.65-.33-5.31-.33-8q0-62,0-124c0-2,.11-4,.25-6,.22-3,1.82-5,4.89-5.06,8.65-.25,17.31-.28,26-.46,4-.09,5.94-2.45,6.19-6.22.21-3.31.17-6.65.17-10q0-165.95,0-331.88Zm175.9,181v153.64c0,6-.12,12,.1,18,.24,6.58,1.73,8.25,8.3,8.3,23.27.16,46.53,0,69.79.17a16.06,16.06,0,0,0,12.33-5.2c3.24-3.35,6.44-6.73,9.84-9.91,4.11-3.84,6.39-8.26,6-14.07-.29-4,0-8,0-12V4802.06c0-4,.13-8,0-12-.61-14.68-16.11-30.23-30.86-30.41-21.27-.26-42.54-.06-63.81-.05-1.33,0-2.66,0-4,.11-4.56.22-7.46,2.19-7.49,7.16,0,5.32-.1,10.64-.1,16Q6679.4,4861.67,6679.4,4940.49Z"/><path class="cls-2" d="M9622.45,4610q105.89,0,211.77,0c5.32,0,10.64.1,16,.26,3,.09,5,1.77,5.34,4.76a86.89,86.89,0,0,1,.49,10q0,73,0,145.94c0,2.66-.05,5.33-.16,8-.17,3.84-2.09,6.06-6.05,6.24-2,.08-4,.17-6,.17-40,0-79.91.07-119.86,0-11.24,0-11.26-.28-11.83-10.84-.15-2.66-.13-5.33-.12-8,0-5.21-3.19-6.79-7.68-6.79q-46.95,0-93.89,0c-4.69,0-7.54,1.91-7.53,6.93q0,47,.14,94c0,3,1.71,4.85,4.84,5.11,1.32.11,2.65.23,4,.24,15.28.14,16.17.38,15.69-15-.07-2,.11-4,.23-6a5,5,0,0,1,5-5.08c3.31-.28,6.64-.4,10-.4q55.94,0,111.87,0c2.66,0,5.33-.05,8,.14,5.83.42,7.62,2.48,8,9,.07,1.33,0,2.67,0,4q0,87,0,173.93c0,2.66-.08,5.32-.3,8-.33,3.95-2.8,5.73-6.55,6-.66,0-1.33,0-2,0q-62.92,0-125.85,0c-6.93,0-7.86-1.21-8.28-8.24-.16-2.65-.05-5.32-.09-8,0-1.33,0-2.67-.14-4-.37-3.84-2.54-6-6.37-6.14-4-.14-8-.05-12,0-4.16.06-5.62,2.88-6.08,6.41a46,46,0,0,0-.15,6c0,27.32-.11,54.64,0,82,.06,11.38.66,11.84,12.81,11.94,16.65.12,33.3-.07,49.94.1,8.5.08,9.88,1.24,9.89,8.63q.15,66,0,131.95c0,6.58-1.48,7.69-8.59,8-4,.16-8,.07-12,.07H9409.16c-4.66,0-9.33,0-14-.14-3.71-.14-6.29-1.85-6.48-5.91-.16-3.33-.23-6.66-.24-10q0-59,0-117.95c0-2-.06-4,0-6,.33-7,1.44-8.41,7.89-8.61,8-.25,16,0,24-.26,3.81-.11,6.06-2.41,6.27-6.27s.25-8,.25-12q0-161.94,0-323.87c0-4,0-8-.22-12a6.23,6.23,0,0,0-6.27-6.35c-6-.35-12-.17-18-.29-13.76-.28-13.76-.3-14-15,0-1.33,0-2.66,0-4q0-56,0-111.95c0-4,0-8,.16-12,.2-3.75,2.17-6.22,6.1-6.38,5.32-.22,10.65-.26,16-.26Q9516.58,4610,9622.45,4610Z"/><path class="cls-3" d="M6704,5434.82l234.48-135.19,9.6,41.31c134.91,580.42,637.43,990.89,1213.81,990.89s1078.89-410.47,1213.8-990.89l9.39-40.39,259.38,142,286.28-152.33L9920.11,5354c-62.76,376.21-236.75,722.05-496.9,991.84-335.66,348.1-786.66,542-1261.32,542s-925.63-193.89-1261.29-542c-260.16-269.8-434.15-615.64-496.91-991.86l-9.85-59Z"/><path class="cls-4" d="M9889.42,5348.52c-142.77,855.85-862,1507-1727.53,1507s-1584.75-651.18-1727.52-1507l271.33,122.29,212.12-122.29c135.42,582.61,641.07,1015.62,1244.08,1015.62s1108.66-433,1244.07-1015.62L9644.27,5479Z"/><path class="cls-3" d="M9574.36,4413.34,9321,4552.56l-13.4-32c-198-472.81-647.39-780-1145.7-780s-947.72,307.16-1145.71,780l-13.34,31.87-241.79-131.33L6434.72,4564.3l19.29-66c85.19-291.51,239.16-556.67,446.77-771.93,335.63-348,786.55-541.82,1261.11-541.82s925.5,193.84,1261.14,541.84c207.61,215.25,361.56,480.41,446.75,771.91l20.36,69.67Z"/><path class="cls-4" d="M8161.89,3216.85c791,0,1459.8,543.89,1678.09,1290.82l-266.43-130.45-237.39,130.45c-197-470.35-648.61-799.41-1174.26-799.41s-977.32,329.06-1174.27,799.41l-225.16-122.29-278.66,122.29c218.29-746.93,887-1290.82,1678.08-1290.82"/><path class="cls-2" d="M9643.72,5643.66a124.37,124.37,0,0,1-6.13,13.41,71.13,71.13,0,0,1-6.88,10.63c-2.18,2.7-4.26,4.14-6.35,4.42s-4.62-.32-7.74-1.77l-20.69-8.76-11.73,36.89,53.57,22.68a151.89,151.89,0,0,0,16.28-18.27,153.62,153.62,0,0,0,13.71-21.29,225.08,225.08,0,0,0,11.86-25.62,130.36,130.36,0,0,0,8.76-35.69,89.92,89.92,0,0,0-2.65-32.66,69.76,69.76,0,0,0-14.67-27.07q-10.4-11.78-27.13-19c-10.9-4.47-20.85-6.5-29.9-5.95a58.33,58.33,0,0,0-24.76,7.16,94.08,94.08,0,0,0-20.79,15.82,233.17,233.17,0,0,0-17.9,20.2c-4.52,5.81-8.87,11.16-13,16a89.22,89.22,0,0,1-12.41,12.12,31.42,31.42,0,0,1-13,6.06c-4.48.84-9.35.14-14.57-2-7-3-11.94-7-14.94-12.14a30.69,30.69,0,0,1-4.22-17.1,59.13,59.13,0,0,1,4.52-20c1.43-3.63,3.1-7.37,5.11-11.31a69.14,69.14,0,0,1,6.6-10.41c2.18-2.7,4.26-4.14,6.35-4.42s4.62.31,7.74,1.77l19.67,8.33,11.74-36.9-50.86-21.53a161.29,161.29,0,0,0-23.2,27.8,178.15,178.15,0,0,0-16.72,32.46,122.17,122.17,0,0,0-8.49,35.19,84.36,84.36,0,0,0,3,31.29,66.74,66.74,0,0,0,14.33,25.56,72.73,72.73,0,0,0,25.54,17.72q16.21,6.77,29.56,6a54.55,54.55,0,0,0,24.39-7.05,90.47,90.47,0,0,0,20.59-16.31,211.38,211.38,0,0,0,18-21.8c4-5.54,7.93-10.59,11.85-15.22a70.49,70.49,0,0,1,11.94-11.57,29.5,29.5,0,0,1,12.91-5.68q6.78-1.14,14.78,2.15,12.58,5.43,17.44,14.15a33.21,33.21,0,0,1,4.11,19.39A76.78,76.78,0,0,1,9643.72,5643.66Zm-337.25,540.53a117.44,117.44,0,0,1-10.69,9.86,68.91,68.91,0,0,1-10.34,7c-3,1.6-5.49,2.08-7.52,1.49s-4.13-2.16-6.45-4.77l-15.75-16.44-24.69,29.2,40.77,42.6a146,146,0,0,0,21.87-10.23,147.88,147.88,0,0,0,20.64-14,217.6,217.6,0,0,0,20.56-18.78,125.39,125.39,0,0,0,21.5-29.3,88.94,88.94,0,0,0,9.86-31.13,71.38,71.38,0,0,0-3.31-30.87q-5.13-15.07-17.82-28.5c-8.34-8.54-16.74-14.44-25.27-17.6a57.88,57.88,0,0,0-25.5-3.45,90.57,90.57,0,0,0-25.09,6.14,223,223,0,0,0-24.08,11.33c-6.35,3.52-12.36,6.67-18,9.43a85.24,85.24,0,0,1-16,6.12,30.78,30.78,0,0,1-14.25.31c-4.44-1-8.66-3.66-12.66-7.75-5.29-5.61-8.33-11.31-9.18-17.23a31,31,0,0,1,2.56-17.45,57.17,57.17,0,0,1,11.71-16.62c2.69-2.77,5.63-5.53,9-8.34a66.17,66.17,0,0,1,10-6.91c3-1.6,5.48-2.08,7.51-1.49s4.14,2.16,6.46,4.77l15,15.63L9262,6018l-38.71-40.44a154.59,154.59,0,0,0-31.82,16.19,170.06,170.06,0,0,0-27.61,23.1,117.9,117.9,0,0,0-21.07,28.94,83.75,83.75,0,0,0-9,30,68.41,68.41,0,0,0,3.57,29.34,75.9,75.9,0,0,0,16.83,26.67q12.39,12.79,25,17.46a54.2,54.2,0,0,0,25.11,3.4,87.53,87.53,0,0,0,25.1-6.67,204.13,204.13,0,0,0,24.77-12.76c5.8-3.48,11.29-6.55,16.65-9.22a67.86,67.86,0,0,1,15.34-5.81,29.15,29.15,0,0,1,14,0q6.68,1.7,12.8,8,9.54,10.11,10.72,20.1a33.12,33.12,0,0,1-3.52,19.51A73.93,73.93,0,0,1,9306.47,6184.19Zm-418.69,368.13L8862.52,6490l-35.43,12.57,7.1,17.51a25.31,25.31,0,0,1,1.92,6.24,6.46,6.46,0,0,1-1,5c-1,1.47-3,2.87-5.81,4.12l-54.35,23.71-26.55-65.5,78-34-14.47-35.73-78,34L8709.64,6398l50-21.8c3-1.3,5.36-1.79,7.12-1.53a6.09,6.09,0,0,1,4.22,2.56,23.58,23.58,0,0,1,2.85,5.56l5.67,14,33.44-17.47-23.56-58.15-154.61,67.45,12.06,29.77,19.67-7.34,66,162.88c1.34,3.47,1.41,6.26.18,8.45a14.28,14.28,0,0,1-6,5.63l-10.72,5.91,11.5,28.38Zm-853.59,178.21,89.71-1.3-.43-32.3-23.82-.79-1.94-143.63h.73L8206.65,6728l42.85-.62-2.83-209c0-4,.7-6.91,2.2-8.77a8.44,8.44,0,0,1,6.43-3.13l13.17-1.33-.42-30.78-89.35,1.3.44,32.3,24.19.78,1.9,141h-.73l-106-172.89-65.91,1,.44,32.29,20.89.84,2.38,176.68c.06,3.73-.7,6.4-2.33,8.08s-3.93,2.52-7,2.69l-13.17,1.34Zm-546.94-192.65c-1.37,3.45-3.16,5.5-5.37,6.27s-5,.48-8.34-.59l-18.39-6.55-11.2,28.5,95.61,40.48,11.76-29.9-26.37-12.4,66.13-168.18,23.06,9.77c3,1.26,5,2.67,6.08,4.14a6.53,6.53,0,0,1,1.24,4.91,24,24,0,0,1-1.78,6l-6.5,16.53,35.55,12.18,23.52-59.81-177.33-75.08L7471.4,6374l33.62,17.11,6.5-16.54a25.12,25.12,0,0,1,2.62-5.32,7.43,7.43,0,0,1,3.69-3,8.66,8.66,0,0,1,5.78.74l26.44,11.19Zm-480-351.82a16.68,16.68,0,0,1-5.84,4.23,7.18,7.18,0,0,1-5.1.07,18.72,18.72,0,0,1-5.12-3.29l-9.29-8.09-21.05,21.69,62.45,65.24,22.09-22.76L7031.46,6227l119.79-123.44a14.54,14.54,0,0,1,5.75-4,7.66,7.66,0,0,1,5.18.2,16.71,16.71,0,0,1,4.87,3l9.29,8.09,21.05-21.68L7134.94,6024l-22.09,22.76,13.93,16.17ZM6620,5641.14l37.14,96.32,28.9-12L6675,5693.64l66.64-27.66,33.47,86.79,34.68-14.4-33.47-86.79,60.19-25,23.53,61c1.2,3.12,1.63,5.6,1.35,7.42a6.4,6.4,0,0,1-2.54,4.33,22.19,22.19,0,0,1-5.41,2.86l-13.6,5.65,16.26,35,56.44-23.43-65.7-170.4-28.9,12,6.73,20.53-158.1,65.63c-3.37,1.33-6.05,1.35-8.2.06a15,15,0,0,1-5.27-6.34l-5.5-11.22Z"/><path class="cls-3" d="M7669,5711.74c8-5,5.64-4.23,18.12-6.25,4.61-4-.4-.68,8.59-6l23.33-10.84c12.82-5.59,20.11-9,33.8-15,12.58-5.61,23.59-10.78,34-14.87,9.22-3.62,34.34-4.51,24.4-26.34a43.74,43.74,0,0,1-3.34-7.22,161.85,161.85,0,0,1-7.14-29.89c14.31-9.69,33.56-28.4,48.83-34-2.64-19.45-10.28-41.41-12.93-60.87,19.5-16.53,29-40.14,49-57.9,11.55-10.27,5.51,3.2,9.66-7.69,4-10.58-11.87-39.89-14.74-50.4,31.57-26.76,32.25-37.87,65.4-66-6.91-50.85-41.79-63.92,25.76-109.67-1.93-31.9-15.2-47.52-1.17-68.49,2.94-4.4,32.32-33.16,36.45-36.66-5.42-19.82-12.12-36.82-17.22-55.45,14.35-12.16,29.25-31.81,43.6-44-2.64-19.46-10.28-41.42-12.92-60.87,78.25-66.33,20.62-57.71,44.39-100.8,38.27-69.37,14.34-31.79,14.93-77.66.22-17.24,10.25-20.31,13.51-34.74,7.34-32.5-21.77-26.63,11.52-75.13,28.43.78,82.55,16.57,108.72,22.73,24.81,5.84,83.28,20.77,106.65,19.84l10.22-9.25c34.57-26.13,76.7-57.62,97.58-30.46l-74.93,47.85c-12.61,8.55-24.66,18.06-40.23,23.19,1.81,22.48,4.08,15.75,6.77,35.56-15.34-2.93-173.75-44.64-187.1-34.12l4.61-.3,9.52,4.52c36.64,5.6,71.28,20.52,103,30,15.73,4.68,31.46,9.19,49.49,14.79,26.5,8.22,24.41,12.06,49.37,3.84,5-5.45-1.12.5,7.57-7L8409.5,4737c38.76-31.05,36.78-11,74.75-3.79-6.41,7-1.28,2.13-10.35,9.13l-73.8,52.91-26.6,22.1c-8.74,6.36-17.69,11.37-26.53,17.35,1.48,24.47-1.85,21.45-2.13,41.28-75.79-14.47-149.68-37.79-225.2-52.21-10-4.55-4.39-3.5-19.29-1.72l15,7.14,4.61-.3,9.52,4.53,116.11,35.46c20.94,6.41,39.7,13,59,19.36,27.45,9.07,26.36,16.88,55.37,7.34,6.41-7,1.28-2.13,10.35-9.13,144-111.19,109.06-78.38,179.47-64.93L8426.57,4927.2c-11,19.11-32.63,24.86-43.6,44l3.71,61.47c-49.59-9.47-95.09-22.16-144.4-32.85L8100.65,4969l-4.92-4.83c-14,.57-16.93-1.22-27.95-3.32,7,6,5.57,5.2,14.88,8.79,6.37,2.45,11.69,3.22,18.3,4.48,20.07,9.11,49.68,15.44,73.71,22.8,34.58,10.6,197.75,65.63,218.48,66.2l42.53-40.21c178.71-168.69,101.66-97.22,200.1-78.42l-107.92,106.19c-11.38,10.73-23.32,26.94-36.4,31.76-12.8,24.54-48,41.12-60.8,65.67l3.71,61.46-173.89-45.26c-58-13.68-115-34-173.9-45.26-10.42-4.73-18.66-7.76-32.87-8.15a33.1,33.1,0,0,0,3,1.68l35.07,16.41c24.65,2.72,229.52,73.82,271.78,87.17,32.75,10.35,70.15,28,86.15,18.13,3.67-4,7-7.69,11.82-12.51l131.8-126.14c55-52.08,44.21-52.23,81.75-24.35,10.87,8.06,17.91,12,29.54,17.86l-170.42,165.36c-5,8.72-23.57,26.53-32.86,35.24-4.05,3.78-15.56,13.56-17.9,16.17-11.51,12.83-7,4.26-9.73,19.37,2,32.5,7.19,42.47,9.25,76.54-35-6.68-73-20.31-107.6-29.65L8167.19,5315c-31.19-9.41-76.06-17.79-103-30-37.27-7.11-72.79-22.21-108.15-29,14.84,12.63,85,30.82,104.16,39.51l384.08,133c16.35,5.9,40.11,15.58,55.28,18.48,10.85-9.2,20.49-19.06,30.7-27.71l131.21-136.37c104.85-107.63,53.74-78.32,162.4-57.57-4.25,8.14-39.57,46.76-47.6,54.52-31.1,30.06-123.37,138.12-147.69,158.74-5.89,10.25-38,43.3-48.32,53.81-9.47,9.61-12.28,15.6-22.93,25.71-12.62,12-16,10.1-19.33,29.22,3.18,23.45,12.55,62.62,14.47,86.48-105-20.06-438.48-141.67-537.05-160.5l21.58,16.88,37.8,13c25.51-2.52,6.84-1.12,14.13,4.22,17.37-1.84,4.44-1.6,9.53,4.53,25.51-2.52,6.84-1.13,14.13,4.22,17.18-1.82,4.36-1.86,9.85,5.79,75.17,28.27,154.45,54.09,220.51,78.49,38.05,14.06,74.09,26.41,112.14,40.47l110,39.14,12.61-11.85,76.66-88.65c9.56-11.64,12.1-12,21.68-22.11l93.18-106.19c13.72-17.33,24.64-25,39.05-43.62l77.09-83.42c25.53,4.88,40.85,21.67,66.37,26.55-20,38.38-148,187.63-188.28,234.59-20.58,24-38.82,55.67-61.34,74.76l-55.88,70.49c-9,17.14-41.09,47.53-45,62.19-3.16,11.85,11.92,79.26,13.13,99.3l-656-214.48-84.8-25.35c19.19,16.35,60.67,24.61,83.06,31.69,9.67,3.06,18.8,6.88,27.19,10l110.14,46,532.36,197.63c15-12.78,60-84.17,78-106.58L8980.3,5441.4c25.7-44.42,32.54-20.93,71.23-31.33,10.19-2.74,4.45-.38,9.83-4.74l-587-758.94c-9.3-12.11-29.54-41.39-40-48.83-27.2,8.95-57.2,36.29-80.09,51.56-45.86,30.59-46.39,37.83-83.25,27.85-64.63-17.5-125.05-33.53-190.84-46.1-4.09,27.79-38.27,107.1-50.22,138.69-17.49,46.24-31.39,88.35-51.74,132.39-34.52,74.71-68.93,195.49-103.26,269.78-37.45,81.06-69.9,195.19-104,269-20.86,45.15-35.13,88.52-53.06,135.9-11.77,31.12-44.8,107.6-48.89,135.07"/><path class="cls-3" d="M8163.1,4239.88c-4.73,5.35,7.95,4.53-13.44,5.94l-165.32,54.87c-18.38,5.73-36.56,13.33-52.59,15.88,2.76,45.76,8.94,71,11.72,117.67,2.53,42.31,8.47,63.76,11.09,107.1,2.56-.17,7.51-.59,8.92-.24,8.31,2.08,5.22,1.34,9.82,4.16,12.18.33,12.93.93,23.08,4,6.37,1.9,3.08.64,10.13,3.77,9.55,4.24,4.22,1.58,9.19,4.94,9.37-8.46,4.63-4-6.58-13.75-45.64-39.64-33.6-38.64-38.33-117,24.45.66,47.85,10.74,69.81,16.68l212.23,57.54,2.17,35.86c8.47,12.93,8.14,58.2,9.24,76.54,24.58-1.6,49.16-3.3,73.74-4.78,66.77-4,32.48-2.9,68.49-14.75,13.2-14.46,90.29-57.12,115.78-74.39l93.43,91.64,4.91,4.82,4.92,4.83,144,143.63c25,24.47,46.28,45.58,71.34,69.88l71.57,75.1c49.55,48.6,95.44,93.77,145.06,142.28,25.44,24.86,43.41,47.41,69.15,72.64,20.7,20.31,53.73,57.08,74.67,71l17.95-11.46c-7.53-27.48-15-28.93.47-52.31,29.92-45.12,45.77-54.35,38.27-89.51-5.37-25.16-6.24-42.8-18.24-54.89l-95.16,109c-15.71-10.2-32.85-27.77-48.56-38,8.32-16,57.61-93.44,67.84-102.09-1.46-18.18-8.63-45.2-13-60.9l-79.53,81a308.75,308.75,0,0,1-29.45,28.95l-74.8-71c26.29-23,62.35-69.23,83.94-83.82,4.84-13.44,2.1-18.55-2.57-34.91-5.43-19-2.26-21.5-15.28-30.79l-109,109.92-84.64-80.67c26.27-22.92,53-57.07,75.84-73.74,5.08-12.55,1.5-22.35-1.56-36-4.85-21.73.08-15.39-12.15-29.18L8801.6,4779.39,8738,4721.82c29.1-24.67,54.91-53.28,83.17-77.42l8.63-10.83c-6.56-12.94-3.45-13.14-8.83-27.61-9.08-24.45,3.67-9.93-12.41-17.29L8703,4677.81c-13.87-9-29.35-19.42-39-33.46,15.46-13.1,28.09-25.24,43.2-39.55,11.85-11.21,30.44-32.94,44.61-38.13,5.63-15.66.88-36.32-12-45.52-24.46,16.62-99.82,73.14-120,79.79l-20.78-23.46,84-78.33c-1.85-13.6-6.88-30.89-11.7-40.41-14.35,5.3-19.88,13.49-30.22,23.34-10,9.54-17.86,15.06-28.89,24.68-37.62,32.77-32.78,41.88-56.65,26.37,6.1-11.7,13.54-16,22.63-26l23.82-24.83c15.8-16.93,27.76-33.81,54.57-38l-56.25-11.79c-20.57,1.32-33.75-.77-54.41-3-17-1.82-28.73-1.9-52.14-.37l-1.87-30.69c-3.05-50-.53-85.21-3.75-138.63l-9.36.6-112.91,52.92c-160.28,70.61-83,67.79-235.7,39.68-32.8-6-99.71-22.33-128-20.49,12-13.1,81.06-44,95.77-50.63,17.81-8.07,84.83-35.89,97.1-49.33-13.24,4.36-13.82,6-31.86,7.3m-196.33,120.67c29.29-1.9,213.59,41.05,257.5,50.51,26.58,5.72,35-4.24,57.77-16,28.89-14.9,147-78.1,167.63-81.36l2.16,35.86c-19.12,3-43.92,20.79-59,28.87-19.24,10.29-34.64,18.08-54.52,28.45-39.95,20.84-79.29,52-111.57,45.14-35-7.46-227.28-57.63-257.8-55.64ZM8271,4495.05c15.93-10.78,27.45-16.92,45.95-27.21,27.94-15.54,111.06-69.82,132.8-77,2,32.5-2,43.07,0,77.14-28.26,9.3-105.6,85.84-137.59,96.37C8308,4549.34,8280.62,4509.07,8271,4495.05Z"/><path class="cls-3" d="M8037.71,4699.37l.17-3.92c-9.58-3.32-9.31-1.86-18.89-9.08-.13-.09-6.95-6.06-7.84-6.89s-4.72-3.39-5.37-5.66c-.55-1.91-1.86-2-2.78-3l41.47-2.7a286.62,286.62,0,0,1-15.34-24.34L8052,4639l-28.61-14.24-11.81.77c-2.82,16.85-22.05,44.92-31.35,61.28l-492.83,885.6c-7.8,16.3-1.94,18,.71,37,16.19.52,98.66,30.36,113.38,38.91,6.29-5.67,3-.58-18.05-15.65-19.76-14.17-54.27-30.41-66.63-50.84,31.32-1.34,88,16.4,121.66,22.94-18.67-12.06-80.21-46.73-91.88-66,27.65-1.8,79.37,8.19,107.22,13.6-19.73-12.74-72.87-44.14-82.35-61.5,18.65,2.87,80.95,20.81,96.33,29.74,6.91-6.23,1.91-.17-17.92-15.88-8.81-7-11.94-9.79-21.6-16.78l-40.55-34.13c35.93-1.53,67.89,17.57,102.92,19-21.23-20.67-61.81-30.84-77.43-56.68,28.57-1.86,74.12,8.37,102.61,13.9-13.28-8.66-26.68-14.88-40.79-23-8.53-4.93-14.05-7.66-21-11.82L7634,5378.73l92.47-.87-72.22-46.74c35.58-2.31,58.19,3.32,88.17,4.56l-46.28-26.9c-18.85-12-3.51,6-16.41-15.31,26.38-1.72,58.9,5.12,83.87,10-21.17-13.67-49.78-25.5-63-47.34,48.45-3.14,54.08,1.08,74,.33-21.42-12.18-43.41-16.92-57.46-32.26l60.34-3.92c-18.62-9.94-35.61-13.78-48.37-27.71l78.65,0-42.66-31.93c-.84-.74-1.9-1.74-2.71-2.49l-8.1-8.39c27.4-1.78,45.56,1.06,69.73,5.75l-48.55-38c27.4-1.78,45.56,1.05,69.74,5.75-22.7-14.65-44.37-26.15-53.48-42.81l59.9-3.89c-19.27-10.85-34.56-18.18-43.63-33.16,27-1.76,40.72,1.95,60.21,1.22-14.43-15.15-24.86-16.26-34.42-33.76,25.5-1.65,32.42,1.06,51,1.83-11.06-11.6-21.88-24.1-30.13-39.18l46.08-3c-15.5-8.73-25-12-34.11-28.63,25.5-1.66,32.43,1.05,51,1.82-16.1-9.15-18.86-7.06-33.8-23.52l46.22-3c-11-15.51-17.07-20.86-25.66-39.47,24.33-1.58,28.8,1.4,46.39,2.13-11-11.61-21.88-24.11-30.12-39.19l46.22-3-21.64-22.63,29.16-3.58c-11.94-12.54-20.8-17.58-29.81-34.05,24.33-1.59,28.8,1.4,46.39,2.12-11.22-11.78-16.26-13.44-24.9-29.24l46.23-3c-17.68-10-13.73-1.31-24.42-19l27.66-2.31c-9.5-9.11-13.1-5.56-29.21-23.31Z"/><path class="cls-3" d="M7064,5267.8l5.57,92.16c25,.68,59.67,17.69,80.84,24.83l230.71,78.35,9.53,4.52,9.51,4.5-9.51-4.5-9.53-4.52-14.36-9.46c-5.54-3-13.3-6.46-19.18-8.87l-116.74-51.2c-20.81-8-81.62-31-94.16-46.62l-30-61.42-5.9-9.65,120.76-80.1c5.06-12.55,9.58-18.16,12-31.63,36.29-2.36,233.06,64.87,282,74.23-.87-.75-2.42-2.95-2.75-2l-16.61-12.14c-20.72-3.26-116.46-44.52-144.1-55.28-26.87-10.47-46.83-19.47-72.5-29.83-13.9-5.61-22.82-9.24-36.55-14.53l-36-15.27c29.57-9.73,85.8-52.85,121-64.44.88-.77,2.2-1.65,2.78-2.09l2.76-2.11,2.77-2.11,5.59-4.16c13.74-10.25,27.78-22.92,44.07-24.08,23.26-1.65,176.74,52.51,206.84,53.33,5.41,4.91-7.75,5.65,14.14,4.22,7.49,6.81,2.6,7.13,9.21-.59l-9.21.59c-5.4-4.9,7.75-5.64-14.14-4.22-14.71-12.53-155.07-57.22-179.11-66.23-9.69-3.63-18.05-6.84-30.86-10.7l-26.61-10.54c28-9.23,81.27-49.08,107.81-53.29,30.5-58.48,55.28-24.11,155.69-9l38.77,11.77,27.95,3.33a27.75,27.75,0,0,0-3-1.68l-9.52-4.54c-6.63-2.58-6.8-2.14-14-4.32-12.33-3.72-16.25-5.51-27.44-9.49-19.28-6.85-33-10.49-51.94-17.17-20.3-7.16-37.2-13.16-55.24-18.54-10.69-3.19-18.67-5.78-27.86-9l-23.53-8.9c26.21-8.63,87.17-54.77,112.11-58.72,17-32.54,37.75-29.61,72.27-19.5,17.71,5.19,65.27,20.36,85,19.56,5.4,4.91-7.75,5.65,14.13,4.23,5.41,4.9-7.75,5.64,14.14,4.22l9.52,4.52-9.52-4.52c-5.4-4.91,7.75-5.65-14.14-4.22-5.4-4.91,7.76-5.65-14.13-4.23l-18.27-10c-4.59-1.83-10.15-3.56-17.05-6.06l-108.5-39.54c-.55-1.48-2.08-1-3-1.67,13.25-4.36,36.58-17.11,49.44-23.79,15.15-7.88,35.53-15.17,49.45-23.78l8-21.09c28.35-1.85,42.24,4.13,67.39,8.66l63.49,13.68,4.92,4.83,9.21-.6c4.15-8.74,5.59-.05-4.81-5.48-21.4-11.17-159.22-46.65-162.16-54-.58-1.49-2.22-.79-3.24-1.41,20.05-6.6,31-16.87,54.36-19l3.37-20.8c41.19-2.67,77.84,19.69,116.75,18.13l9.52,4.52-9.52-4.52c-5.09-3.44.42-.7-9.25-4.88l-108.58-33.73c-17.52,6.39-13.34,9-16.71,31.95-24,2.16-39.22,12.75-59,19.26-.29,19.64-5.23,42.42-5.51,62.07-18.56,1.67-56.42,22.39-72.34,30.26-32.94,16.27-24.41,11.41-28.11,25.42-1.82,6.9-4.47,36.59-4.57,43.71-35.93,5.69-81.39,42.16-117,53.9l4,66.59c-18.24,1.64-47.67,18.39-66.09,26.74-22.39,10.15-36.91,20.1-60.14,27.75l2.78,59.68-133,82.49c2.24,37.1-1.51,51.6.65,87.38-20.48,6.74-42.42,24.48-59.81,37.72-18.8,14.31-37.53,24.18-56,36.67"/><path class="cls-3" d="M8855.41,4904.46l4.92,4.82ZM8471.6,4600.29l481.92,615.92c16.5,20.18,95.15,133,114,137.29,12.83-24.62,42-55.21,55.26-80.73l-67,40.28c4.23-23.54,53.77-87.5,58-111.7-16.85,14.28-73.21,72.32-87.83,77.71,8.69-21.55,24.48-50.43,27.93-73.81l-43.5,15.16c-1.38.62-5.35,2.51-6.57,3.19-11.92,6.66-3.09,1.19-8.6,6-9.79-6.81-5.74-2.47,1.6-12.89l53.14-89.24c-1.59.1-66.8,53-80.56,57.53l33.31-88.68-76.64,47L8861,5073.8c8.83-7.48,27.75-26.82,36-37,16.24-19.91,18.87-23.65,38-39.85l-81.19,47.28,21.12-48.43c-18.09,2.77-32,14.64-45,23.41,4.22-28.68,27.7-55.68,31.92-84.35-11.39,9.64-41.49,37.08-47.91,49.39l1.6-12.89c2.66-3.77,3.09-4.86,5.73-8.84,17.44-26.26,15.27-16.26,34.42-53l-50.35,37.36c-10.49,10-.45.26-7.07,7.52-12-8.33-4.35,1.33,12.39-26.4,6.16-10.21,11.41-16.66,16.77-26.93-18.9,6.22-51.75,24.73-67.26,35.23,3.41-19.29,4.25-6.92,7.66-26.21-16.8,5.53-12.37,9.29-31.63,12.34-6.71-22-47.61-64.67-60.86-88.61l52.51-49.69-64,25.58c.7-.91,36.18-36.2,40-39.45l-54.77,25,36.26-43.15c-21.38,5.52-41.67,20.37-59.83,23.25-8.37-12.14-17.32-22.94-25.2-34.36,13.46-9.12,36-25.14,43.92-38.85l-42,21.43a30.36,30.36,0,0,0-2.82,2.05l6.74-22.31c5.62-9.58,5.29-10.11,9.22-19.87l-18.43,1.2c8.06-15.46,8.91-7.48,12.28-26.51-15.79,5.19-35.76,19.84-49.15,28.91,2.37-16.12,5-15.22,7.36-31.34-20.21,1.82-14.14,4.4-31.94,7.23l8.24-21-23.3,1.36c11.74-22.51,19.62-17.89,30.09-38-13,2.05-30.86,12.08-40.54,18.06,3-20.19,9.28-20.57-15.07-19.59,6.93-13.27,15.32-18.27,26.1-27.41l-4.2-5.72c-1.54.09-2.86,1.76-3.16,3.31Z"/><path class="cls-3" d="M7919,4718.5c-8.44,20.95-12.1,20.54-20.87,37.35-5.85,11.22-16.52,26.56-24.35,38.77-9.14,14.26-14.64,26.4-26.61,36.54-3.34,18.89-5.15,13.36-15.26,28.41-7.38,11-9.47,17.55-18.51,25.21-6.93,17.2-38.61,70.23-50.66,80.44-5.52,13.7-20,39.45-29.47,48.19-8.67,16.63-34.07,59.22-46.66,69.89-2.73,15.41-12.36,25.48-20.22,38-6.06,9.66-15,25.22-21.84,31.58-9.26,17.76-19.94,32.86-31.28,51.24-10.45,16.91-19.29,34.45-32.27,45.46-2.73,15.4-12.35,25.48-20.21,38-6.06,9.67-15,25.23-21.85,31.59-8.13,15.58-49,82.59-59.25,91.27-11.07,27.47-30.43,51.82-46.34,75-8.92,17.22-21.12,32.07-30,48.11-12.88,23.22-1,25.29,4.23,55.32,23.24-1.51,8.92-.41,14.63,4.37,10.9-6.1,6.95-1.05,11.35-19.46,4.18-24.06,47-89.47,61.67-114.38Z"/><path class="cls-3" d="M7747.22,4555l28.2,8.33c12.85,2.78,19.74,5,32.36,8.8,18.57,5.66,40.93,11,61.17,16.56,20,5.45,40.51,11,61.12,16.61,51,13.87,46.38,17.86,56.15.84-43.9-8.38-187.31-59.1-216.29-57.93l98.94-71.63c7.53-4.8,10.74-6.37,18-11.27,9.31-6.26,9.71-6.24,16.05-13.08l-153.26,66.46c.91,22.53-2.15,16.2-2.44,36.31"/><path class="cls-3" d="M8058.1,4570.6c5.81,13.42.31,5.39,13.34,10.73l57,5.27-4.95-82c-22.13-4.23-44.54-12.53-70.05-10.87Z"/><path class="cls-4" d="M7473.53,4693.44a56.11,56.11,0,0,1-20.26-11.89,65.8,65.8,0,0,1-21-53.08c2-25,18.17-43.12,40.59-51.1,21.07-7.49,43.19-4.84,59.44,11.85,25.24,25.91,23.61,70.78-2.64,93.16,22.43-2.06,37.77,1.46,55.31,25.88,5.52,7.67,10.88,15.45,15,24.06a180.35,180.35,0,0,1,8.69,23.26c30.45-2.62,58.75-23.86,86.4-35.19l78-31.94-61.7,58.86c-5.66,5.39-11.16,10.95-16.85,16.29A204.44,204.44,0,0,1,7661.2,4789c-16.3,10.06-34.74,17.19-51,27.08-.83,14.44-1.2,29.63.41,43.68,1.13,9.8,3.26,18.61,7.71,27.37,3.76,7.39,8.79,14.27,13.7,20.87,7.45,10,14.92,19.88,22,30.21,14.65,21.4,28.86,44.4,38.91,68.58,5.72,13.75,9.08,26.78,13.45,40.85a116.29,116.29,0,0,0,7,17.74l1.44,2.87.26,3.22c3.47,42.42,13.21,95,4.89,136.65l-12.76,63.91-17.45-62.71c-5.19-18.68-9.72-37.56-15-56.24-2.77-9.77-13.21-46-19.37-52.95l-3.78-3.46-4-20.28c-13.37-27.22-27.78-54.33-46.84-77.76-11.54-14.18-24.59-26.81-38.25-38.72-9.83,37.87-16.71,85.75-37.9,111.72l-6.2,7.6-9.33-2.33c-10.45-2.62-21.05-7.6-30.72-12.44-11-5.52-21.84-11.49-32.77-17.18-11.53-6-23.63-12.08-35.89-16.26-34.79-11.88-78.33-19.25-108.36-41.17l-34.93-25.49,42.55-3.82c37.46-3.36,74.31-3.94,111.67.71,10.46,1.3,20.82,3.06,31.25,4.46,3.86.52,7.77,1,11.68,1.21,14.5-41.64,33.64-96.13,33.1-139.47L7379.78,4754l13.42-14.55c19.36-21,50.14-36.59,80.33-46"/><path class="cls-3" d="M7477.91,4592.66c-57.31,20.38-25.32,105.19,30.36,84,47.32-18,27.33-104.54-30.36-84M7662.34,5071l3.41,17.13c13.57,12.45,31.58,90.33,38.92,116.71,7.52-37.64-2-93.39-5.16-132-16.09-32.1-7.2-50.75-58.22-125.28-36.22-52.91-52-53-46.14-140.81,17.23-11.83,40-20.5,58.09-31.63,22.54-13.92,31.71-24.66,47.52-39.74-29.73,12.18-64,38.88-103.42,36.42-9.17-29-10-33.3-24.85-53.93-15.68-21.81-24.58-22.23-59.58-17.08-41.91,6.17-86.43,25.92-108.46,49.8l107.31,67.51c3.86,51.59-21.76,119.76-37.31,164.89-31.55,2.41-62.37-15.5-164.23-6.35,26.74,19.51,70.42,27.47,104.27,39,33.31,11.37,73.28,39.3,98.16,45.52,21.61-26.49,28.26-91.51,41.78-128.76C7608.1,4976.19,7628.91,5002.7,7662.34,5071Z"/><path class="cls-2" d="M8489.54,3608.2l96.11,28.59,8.58-31.05-31-10.41,19.78-71.6,86.6,25.77,10.3-37.26-86.6-25.77,17.87-64.65,60.9,18.12c3.1.93,5.26,2.09,6.47,3.45a6.43,6.43,0,0,1,1.74,4.73,24.49,24.49,0,0,1-1.13,6.18l-4,14.61,36.61,8.13,16.76-60.63-170-50.59-8.58,31,19.76,7.06-46.93,169.85c-1.06,3.58-2.68,5.79-5,6.75a14,14,0,0,1-8.06.44l-11.92-2.36Zm-323.05-244.1h1.1l33,108.3h-68.12Zm-93.38,167.58a20.46,20.46,0,0,1-4.09,7.72,10.7,10.7,0,0,1-6.9,2.92l-12.09,1.14v30.78h84.6v-32.3l-22-1.14,11-33.44h85.7l7.69,23.56q1.83,6.16-.55,8.55t-8.24,2.85l-13.92,1.14v30.78h94.48v-32.3l-20.87-1.14h-.37l-74.7-219.25H8109v30.77l23.07,2.28Zm-318.27,76.73a114.58,114.58,0,0,1-13.83,3.79,66.11,66.11,0,0,1-12.26,1.41c-3.4,0-5.81-.71-7.36-2.18s-2.75-3.87-3.69-7.28l-6.91-22-34.73,14.5,17.88,57.1a149.62,149.62,0,0,0,48.48-1.76,207.23,207.23,0,0,0,26.52-7.14,119.62,119.62,0,0,0,31.92-16.09,85,85,0,0,0,22.33-23.18,70.7,70.7,0,0,0,10.46-29.09c1.31-10.57.16-21.83-3.52-33.78-3.73-11.52-8.67-20.72-14.91-27.53a59.76,59.76,0,0,0-21.26-15,90.55,90.55,0,0,0-25.06-6.27,220.25,220.25,0,0,0-26.41-1.15c-7.2.17-13.94.17-20.16,0a84.51,84.51,0,0,1-16.93-2,31.38,31.38,0,0,1-12.84-6.39c-3.51-3-6.15-7.32-7.94-12.84-2.28-7.49-2.52-14-.71-19.67a29.88,29.88,0,0,1,9.88-14.39,54.2,54.2,0,0,1,17.67-9.35,115.81,115.81,0,0,1,11.62-3.25,63.64,63.64,0,0,1,11.92-1.49c3.4,0,5.81.7,7.36,2.18s2.75,3.87,3.69,7.28l6.56,21,34.74-14.51-17-54.21a150.8,150.8,0,0,0-35.43-.44,163.92,163.92,0,0,0-34.69,7.7,112.32,112.32,0,0,0-31.38,16,80.32,80.32,0,0,0-21.11,22.56,67.69,67.69,0,0,0-9.56,27.86,78.21,78.21,0,0,0,3.43,31.68q5.49,17.22,14.71,27.27a55.88,55.88,0,0,0,20.93,14.78,87.05,87.05,0,0,0,25.3,5.79,198.83,198.83,0,0,0,27.65.2c6.68-.39,12.92-.56,18.86-.43a66.69,66.69,0,0,1,16.22,2,29.81,29.81,0,0,1,12.52,6.56q5.2,4.65,8,13.1c2.75,9,3,16.63.84,23a32,32,0,0,1-11.62,15.77A70.76,70.76,0,0,1,7754.84,3608.41Zm-250.7,155-33.57-58-33.34,17.68,9.43,16.28a25.25,25.25,0,0,1,2.77,5.89,6.48,6.48,0,0,1-.33,5.08c-.79,1.6-2.52,3.27-5.19,4.93l-50.54,31.51-35.27-60.91,72.51-45.2-19.23-33.23-72.52,45.21L7306.61,3637l46.46-29c2.77-1.73,5.06-2.57,6.84-2.57a6,6,0,0,1,4.53,1.91,23.71,23.71,0,0,1,3.58,5.08l7.54,13,30.7-22.24L7375,3549.16l-143.77,89.64,16,27.68,18.45-10.18,87.71,151.46c1.8,3.23,2.25,6,1.33,8.33a14.38,14.38,0,0,1-5.15,6.46l-9.8,7.44,15.28,26.38Zm-562.77,224.21,20.95-25.9a92.33,92.33,0,0,1,20.88-19.52,54.1,54.1,0,0,1,24.93-9c9.06-1,18.91.76,29.63,5.13s22.37,11.95,35,22.85c14.92,13.08,25.73,26.12,32.29,39.19s9.27,25.68,8,38-6.38,24-15.21,34.87l-24,29.69Zm116,192.3,66.85-82.67a136.7,136.7,0,0,0,18.77-30.2,109.06,109.06,0,0,0,9.07-33.69,101.93,101.93,0,0,0-3.05-36.22q-4.89-18.64-17.66-37.78t-34.73-38.43q-21.94-19-43.3-26.86c-14.3-5.26-28.18-7-41.78-5.38s-26.7,6.52-39.28,14.58-24.51,19.09-35.77,33L6872,4016l23.85,20.76,14.26-15.86,130.44,113.58c2.72,2.45,4,4.89,3.93,7.46a15.49,15.49,0,0,1-2.9,7.82l-6.92,10.33Z"/><path class="cls-5" d="M9290.67,3963a164.14,164.14,0,0,1,21.55-14.89,106,106,0,0,1,22.64-9.84,66.21,66.21,0,0,1,22.57-2.94,49.51,49.51,0,0,1,21.34,6c6.83,3.62,13.12,9.29,18.91,16.89,6.15,8.27,9.88,16.51,11.25,24.71a52.61,52.61,0,0,1-1.22,23.9,79,79,0,0,1-10.24,22.29,133.22,133.22,0,0,1-15.73,19.74,192.35,192.35,0,0,1-17.85,16.32,181.88,181.88,0,0,1-21.54,15.21,115,115,0,0,1-22.5,10.44,66.31,66.31,0,0,1-22.26,3.66,46.69,46.69,0,0,1-21-5.47q-10.08-5.21-18.71-16.5c-6.41-8.63-10.45-17.08-12.21-25.38a53.31,53.31,0,0,1,.25-24.15,74.85,74.85,0,0,1,9.65-22.37,125.58,125.58,0,0,1,16-20.17,202.32,202.32,0,0,1,19.15-17.46m102,138.61q21.87-17.85,35.1-35.77t18.93-35.35a95.22,95.22,0,0,0-1.82-65.88,123.28,123.28,0,0,0-38.61-51.48,106,106,0,0,0-28.95-15.83,96.8,96.8,0,0,0-34.47-5.25c-12.29.25-25.37,3.13-39.07,8.61s-27.94,14.22-42.78,26.09q-24.61,20.07-38.7,41.18t-18,42.51a94.07,94.07,0,0,0,1.88,42.52q5.73,21,20.88,41.1,14.88,19.76,33.22,30.85a88.74,88.74,0,0,0,39.6,12.67q21.2,1.62,44.54-7.18T9392.72,4101.63ZM8924.88,3756c-1.85,3.2-4,5-6.29,5.46s-5-.27-8.09-2l-17.2-9.39L8878,3776.43l88.52,55.19,16-27.68-23.92-16.25,31.31-54.07,105.3-66a30.55,30.55,0,0,1,8.62-3.93,11.25,11.25,0,0,1,7.71.82l10,4.89,15.28-26.38-67.49-42.08-16,27.68,14.94,11.09-73.45,46.42-1.25-.78,6.14-73.31c.28-4.55,1.56-7.75,3.82-9.44s5.2-1.71,8.87.06l10,4.9,15.28-26.39-76.59-47.75-16,27.69,14.19,10.17-7.56,138.48Z"/><ellipse class="cls-6" cx="8160.53" cy="5035.64" rx="1754.65" ry="1820.97"/><text class="cls-7" transform="translate(3340.32 2579.78)">EN CONSTRUCCION</text></svg>