<svg id="Capa_1" data-name="Capa 1" xmlns="http://www.w3.org/2000/svg" xmlns:xlink="http://www.w3.org/1999/xlink" viewBox="0 0 397.33 238.22"><defs><style>.cls-1{fill:none;}.cls-1,.cls-10,.cls-2,.cls-9{stroke:#000;}.cls-1,.cls-10,.cls-2,.cls-3,.cls-4,.cls-5,.cls-6,.cls-7,.cls-8,.cls-9{stroke-miterlimit:10;}.cls-1,.cls-10{stroke-width:5px;}.cls-3,.cls-4,.cls-5{stroke:#f2f2f2;}.cls-3{fill:url(#Degradado_sin_nombre_36);}.cls-4{fill:url(#Degradado_sin_nombre_36-2);}.cls-5{fill:url(#Degradado_sin_nombre_36-3);}.cls-6,.cls-7,.cls-8{stroke:#fff;}.cls-6{fill:url(#Degradado_sin_nombre_37);}.cls-7{fill:url(#Degradado_sin_nombre_37-2);}.cls-8{fill:url(#Degradado_sin_nombre_37-3);}.cls-9{fill:#ccc;}.cls-10,.cls-12{fill:#fff;}.cls-11{fill:#29abe2;}.cls-13{fill:#65c8d0;opacity:0.21;}.cls-14{fill:url(#Blanco_Negro);}</style><linearGradient id="Degradado_sin_nombre_36" x1="33.12" y1="97.13" x2="77.88" y2="97.13" gradientUnits="userSpaceOnUse"><stop offset="0"/><stop offset="1" stop-color="#222" stop-opacity="0.7"/></linearGradient><linearGradient id="Degradado_sin_nombre_36-2" x1="10.74" y1="97.13" x2="55.5" y2="97.13" xlink:href="#Degradado_sin_nombre_36"/><linearGradient id="Degradado_sin_nombre_36-3" x1="55.5" y1="97.13" x2="100.26" y2="97.13" xlink:href="#Degradado_sin_nombre_36"/><linearGradient id="Degradado_sin_nombre_37" x1="321.45" y1="97.13" x2="366.21" y2="97.13" gradientUnits="userSpaceOnUse"><stop offset="0" stop-color="#222" stop-opacity="0.7"/><stop offset="1"/></linearGradient><linearGradient id="Degradado_sin_nombre_37-2" x1="343.83" y1="97.13" x2="388.6" y2="97.13" xlink:href="#Degradado_sin_nombre_37"/><linearGradient id="Degradado_sin_nombre_37-3" x1="299.07" y1="97.13" x2="343.83" y2="97.13" xlink:href="#Degradado_sin_nombre_37"/><linearGradient id="Blanco_Negro" x1="127.37" y1="42.07" x2="255.32" y2="42.07" gradientUnits="userSpaceOnUse"><stop offset="0" stop-color="#fff"/><stop offset="1"/></linearGradient></defs><path class="cls-1" d="M155.7,192.85a103.73,103.73,0,0,0-5,15.71s-1.65,5.74.87,10.07l5.56,8.06s3.73,5.61,7.87,4.33a3.86,3.86,0,0,0,1.7-4.78l-2.17-8.94a5.91,5.91,0,0,1,1.49-3.5l26.13-25.06H157.81S157.78,188.93,155.7,192.85Z"/><path class="cls-1" d="M240.84,192.85a103.17,103.17,0,0,1,5,15.71s1.64,5.74-.87,10.07l-5.56,8.06s-3.73,5.61-7.87,4.33a3.86,3.86,0,0,1-1.7-4.78l2.17-8.94a5.91,5.91,0,0,0-1.49-3.5l-26.13-25.06h34.3S238.77,188.93,240.84,192.85Z"/><g id="Disco_Izq" data-name="Disco Izq"><path class="cls-2" d="M77.88,48.18H33.12C18,48.18,6.2,69.68,6.2,97.13s11.82,49,26.92,49H77.88c15.1,0,26.92-21.5,26.92-49S93,48.18,77.88,48.18Zm0,93.36H33.12c-12.36,0-22.38-19.88-22.38-44.41s10-44.41,22.38-44.41H77.88c12.36,0,22.38,19.88,22.38,44.41S90.24,141.54,77.88,141.54Z"/><path class="cls-3" d="M66.69,135.59c-6.69-7.68-11.19-22-11.19-38.46S60,66.36,66.69,58.68c3.29-3.79,7.11-6,11.19-6H55.5c-4.08,0-7.9,2.17-11.19,6-6.69,7.68-11.19,22-11.19,38.45s4.5,30.78,11.19,38.46c3.29,3.78,7.11,5.95,11.19,5.95H77.88C73.8,141.54,70,139.37,66.69,135.59Z"/><path class="cls-4" d="M44.31,135.59c-6.69-7.68-11.19-22-11.19-38.46s4.5-30.77,11.19-38.45c3.29-3.79,7.11-6,11.19-6H33.12c-12.36,0-22.38,19.88-22.38,44.41s10,44.41,22.38,44.41H55.5C51.42,141.54,47.6,139.37,44.31,135.59Z"/><path class="cls-5" d="M77.88,52.72c-4.08,0-7.9,2.17-11.19,6C60,66.36,55.5,80.7,55.5,97.13s4.5,30.78,11.19,38.46c3.29,3.78,7.11,5.95,11.19,5.95,12.36,0,22.38-19.88,22.38-44.41S90.24,52.72,77.88,52.72Z"/></g><g id="Disco_Der" data-name="Disco Der"><path class="cls-2" d="M321.45,48.18h44.76c15.1,0,26.92,21.5,26.92,48.95s-11.82,49-26.92,49H321.45c-15.09,0-26.92-21.5-26.92-49S306.36,48.18,321.45,48.18Zm0,93.36h44.76c12.37,0,22.39-19.88,22.39-44.41s-10-44.41-22.39-44.41H321.45c-12.36,0-22.38,19.88-22.38,44.41S309.09,141.54,321.45,141.54Z"/><path class="cls-6" d="M332.64,135.59c6.69-7.68,11.19-22,11.19-38.46s-4.5-30.77-11.19-38.45c-3.29-3.79-7.11-6-11.19-6h22.38c4.08,0,7.9,2.17,11.19,6,6.69,7.68,11.19,22,11.19,38.45s-4.5,30.78-11.19,38.46c-3.29,3.78-7.11,5.95-11.19,5.95H321.45C325.53,141.54,329.35,139.37,332.64,135.59Z"/><path class="cls-7" d="M355,135.59c6.69-7.68,11.19-22,11.19-38.46S361.71,66.36,355,58.68c-3.29-3.79-7.11-6-11.19-6h22.38c12.37,0,22.39,19.88,22.39,44.41s-10,44.41-22.39,44.41H343.83C347.91,141.54,351.73,139.37,355,135.59Z"/><path class="cls-8" d="M321.45,52.72c4.08,0,7.9,2.17,11.19,6,6.69,7.68,11.19,22,11.19,38.45s-4.5,30.78-11.19,38.46c-3.29,3.78-7.11,5.95-11.19,5.95-12.36,0-22.38-19.88-22.38-44.41S309.09,52.72,321.45,52.72Z"/></g><rect id="Barra" class="cls-9" x="81.17" y="92.22" width="238.11" height="9.33" rx="4.67"/><path class="cls-1" d="M143.41,117l-30.13-14.11s-19.78-8.45-9,7c0,0,15.14,25.06,39.13,35.84Z"/><path class="cls-10" d="M255.32,117l30.12-14.11s19.78-8.45,9,7c0,0-15.14,25.06-39.12,35.84Z"/><rect class="cls-10" x="143.41" y="62.52" width="111.41" height="126.22" rx="12"/><path class="cls-11" d="M165.22,89.78,186,98.89v7.67s-1.22,8.55-10.89,9.22c0,0-9.67.22-12.33-7.22C162.78,108.56,159.56,95.67,165.22,89.78Z"/><ellipse class="cls-12" cx="178.02" cy="101.17" rx="4.09" ry="4.17"/><path class="cls-11" d="M235.42,89.78l-20.78,9.11v7.67a11.31,11.31,0,0,0,10.89,9.22s9.67.22,12.34-7.22C237.87,108.56,241.09,95.67,235.42,89.78Z"/><ellipse class="cls-12" cx="222.62" cy="101.17" rx="4.09" ry="4.17"/><path d="M179.89,151.22h41.78s2.66,0,1.77-12.11c0,0-2.93-19.11-21.68-19.11,0,0-17.32-1.78-24.2,17.89C177.56,137.89,175.78,151.22,179.89,151.22Z"/><path class="cls-12" d="M185,139.89s-4.41-.28-2.59-11c0,0,18-17.33,36.12-.87,0,0,1,11.34-2.42,11.9,0,0,4.33,7.33.45,10.22H184.67S179.89,145.11,185,139.89Z"/><path class="cls-13" d="M207.22,121.6s2,11.29-2.44,15.18c0,0,3.11,7.33,0,13.33h11.78s3.66-2.78-.45-10.22c0,0,2.95-.36,2.42-11.9C218.53,128,213.21,121.75,207.22,121.6Z"/><path class="cls-14" d="M249.13,26.52c-10.6-11.34-31.52-12.89-37.68-13.1h-.71c-.38,0-.77,0-1.15,0-2.31.12-4.67.18-7,.18a134.32,134.32,0,0,1-38.43-5.38l-9.84-3.32,5.12,9c.84,1.48,1.66,2.82,2.44,4a109.25,109.25,0,0,1-27.6-5.68L127.37,9.7,129,16.89c13.27,57.83,63.8,62.32,79,62.32,2.26,0,3.75-.1,4.22-.13,41.23-1,43-33.41,43.09-35.83A22.49,22.49,0,0,0,249.13,26.52Z"/><path d="M249.13,26.52c-10.6-11.34-31.52-12.89-37.68-13.1h-.71c-.38,0-.77,0-1.15,0-2.31.12-4.67.18-7,.18a134.32,134.32,0,0,1-38.43-5.38l-9.84-3.32,5.12,9c.84,1.48,1.66,2.82,2.44,4a109.25,109.25,0,0,1-27.6-5.68L127.37,9.7,129,16.89c13.27,57.83,63.8,62.32,79,62.32,2.26,0,3.75-.1,4.22-.13,41.23-1,43-33.41,43.09-35.83A22.49,22.49,0,0,0,249.13,26.52ZM212,75.11S147.78,80.89,132.89,16c0,0,18.44,6.89,37.11,6a50.31,50.31,0,0,1-7.11-10s20.11,6.78,46.9,5.41c.51,0,1,0,1.52,0,6,.2,40.84,2.35,40,25.72C251.33,43.11,251.35,74.22,212,75.11Z"/></svg>